<?xml version="1.0" standalone="no"?>
<!DOCTYPE svg PUBLIC "-//W3C//DTD SVG 20010904//EN"
 "http://www.w3.org/TR/2001/REC-SVG-20010904/DTD/svg10.dtd">
<svg version="1.0" xmlns="http://www.w3.org/2000/svg"
 width="1000.000000pt" height="1000.000000pt" viewBox="0 0 1000.000000 1000.000000"
 preserveAspectRatio="xMidYMid meet">

<g transform="translate(0.000000,1000.000000) scale(0.100000,-0.100000)"
fill="#000000" stroke="none">
<path d="M6288 8270 c-163 -20 -431 -107 -535 -172 -29 -18 -71 -44 -94 -58
-69 -42 -210 -192 -283 -300 -46 -68 -182 -334 -198 -385 -29 -97 -69 -263
-78 -325 -9 -66 -2 -167 16 -213 4 -11 -8 -15 -50 -20 -97 -10 -187 -62 -222
-130 -22 -41 -32 -111 -24 -157 7 -36 5 -42 -24 -67 -17 -16 -49 -52 -71 -81
l-39 -52 -13 25 c-8 14 -18 25 -24 25 -6 0 -37 -27 -70 -59 -32 -32 -59 -57
-59 -55 0 3 20 55 44 117 76 191 96 274 102 427 4 99 2 163 -10 239 -20 130
-20 141 0 141 33 0 162 70 192 104 41 47 72 134 72 202 0 231 -106 435 -256
493 -138 53 -230 36 -384 -70 -12 -8 -28 -2 -70 26 -204 138 -565 250 -840
262 -125 5 -147 3 -295 -27 -88 -17 -180 -40 -205 -50 -25 -10 -79 -30 -120
-46 -99 -37 -185 -83 -294 -156 -73 -50 -93 -58 -105 -49 -9 6 -44 25 -79 41
-135 65 -267 78 -350 36 -108 -56 -225 -180 -269 -285 -24 -58 -27 -79 -28
-176 0 -130 19 -207 71 -278 19 -26 50 -55 69 -64 40 -19 42 -27 16 -85 -11
-24 -28 -64 -37 -91 -9 -26 -18 -46 -19 -45 -1 2 -22 48 -46 103 -42 97 -85
171 -112 193 -21 18 -78 -3 -113 -40 -36 -39 -69 -94 -83 -140 -5 -18 -17 -53
-26 -77 -44 -121 -59 -395 -26 -466 21 -44 57 -85 98 -112 14 -9 38 -42 52
-73 44 -92 233 -419 343 -594 50 -80 296 -330 431 -439 48 -38 86 -75 83 -82
-22 -57 -59 -191 -80 -290 -47 -222 -58 -290 -63 -392 l-6 -102 -51 -11 c-86
-18 -219 -61 -271 -88 -27 -13 -82 -57 -121 -96 -70 -71 -71 -71 -89 -159 -16
-76 -16 -95 -5 -145 16 -72 47 -133 102 -199 249 -299 316 -362 605 -573 94
-69 102 -78 108 -115 4 -22 26 -101 50 -175 151 -471 145 -449 125 -537 -7
-29 -10 -63 -6 -77 8 -33 68 -73 137 -92 67 -18 240 -10 280 13 48 28 69 92
89 272 11 91 26 207 35 256 8 50 20 128 25 175 5 47 16 121 24 165 7 44 22
161 32 260 l18 180 125 62 c130 64 183 104 258 198 22 28 50 70 63 95 12 25
23 46 25 48 1 1 38 -18 82 -42 45 -25 114 -62 153 -83 155 -81 161 -88 197
-198 9 -30 9 -31 -58 -63 -135 -67 -206 -154 -271 -333 -22 -61 -23 -77 -23
-329 0 -242 2 -272 23 -346 23 -85 122 -350 147 -395 13 -24 13 -31 -7 -75
-11 -27 -23 -78 -26 -114 -4 -59 -2 -69 21 -96 37 -44 112 -77 182 -82 78 -5
325 14 376 29 47 15 113 69 136 113 15 27 17 61 14 242 l-2 211 88 -24 c148
-41 219 -34 385 38 l68 30 40 -26 c22 -14 56 -40 75 -58 l33 -32 1 -111 c2
-180 32 -248 133 -298 65 -32 161 -35 223 -7 40 18 40 18 80 -5 90 -51 299
-90 394 -72 73 13 117 37 168 90 35 37 45 57 67 138 14 52 26 108 26 124 0 23
3 27 18 21 124 -51 254 -45 393 19 90 42 93 48 79 157 -9 69 -9 116 -1 183 6
50 13 120 16 155 4 35 18 107 31 160 66 252 90 371 104 516 5 61 10 119 10
130 0 13 3 16 8 8 13 -21 201 -103 306 -133 96 -28 310 -70 356 -70 13 0 51
-29 98 -74 95 -91 252 -230 312 -276 64 -50 118 -77 185 -95 78 -20 114 -19
196 5 56 17 76 29 116 71 128 136 132 177 25 306 -26 32 -92 121 -147 197
-349 486 -391 527 -735 731 -63 38 -116 69 -118 70 -2 2 11 17 29 34 29 29 31
36 26 79 -6 54 -29 77 -94 95 -24 6 -43 15 -43 19 0 13 -232 592 -246 616 -12
18 -12 23 -2 26 7 3 92 7 188 10 96 3 217 9 268 12 l93 7 49 50 c65 66 181
220 213 282 61 122 66 199 14 209 -12 3 -148 7 -302 10 -236 5 -487 24 -502
39 -2 2 16 10 39 17 128 38 345 190 443 310 68 83 97 154 115 278 9 64 10 66
78 128 80 73 112 131 112 201 -1 57 -23 123 -45 135 -14 8 -13 12 3 36 11 15
30 47 42 72 12 24 33 52 46 62 31 25 107 141 144 219 40 86 57 220 41 316 -31
176 -185 358 -344 404 -47 13 -73 -10 -183 -169 -1 -2 -20 16 -41 39 -121 137
-261 238 -487 351 -250 125 -401 176 -608 203 -140 19 -380 27 -470 15z
m-2650 -160 c202 -44 290 -75 450 -157 81 -42 148 -77 150 -78 2 -1 -9 -20
-23 -41 -50 -74 -47 -130 3 -60 18 25 39 51 46 58 41 39 75 64 127 89 48 24
71 29 132 29 42 0 94 -7 123 -17 50 -17 114 -58 114 -74 0 -5 15 -30 34 -56
18 -27 46 -82 61 -123 24 -62 28 -91 28 -170 1 -102 -16 -155 -65 -212 -21
-24 -134 -88 -156 -88 -26 0 -142 -42 -142 -51 0 -6 18 -9 42 -7 l42 3 13 -90
c41 -308 28 -384 -129 -780 -42 -107 -69 -160 -93 -184 -18 -18 -38 -30 -44
-27 -6 4 -18 33 -26 64 -111 402 -331 648 -849 947 -186 108 -242 146 -451
305 -153 117 -285 211 -285 204 0 -3 27 -34 61 -69 l60 -63 -29 -33 c-16 -19
-40 -47 -53 -63 -24 -29 -143 -136 -234 -212 -28 -23 -133 -111 -235 -195
-326 -271 -452 -412 -564 -634 l-56 -110 0 140 c0 182 13 287 60 470 58 228
112 353 240 555 115 183 192 268 370 411 157 125 263 186 464 264 80 32 141
48 221 59 61 8 121 17 135 19 14 3 93 5 175 5 132 2 166 -2 283 -28z m-1533
-191 c68 -18 235 -81 235 -88 0 -4 -28 -31 -62 -59 -134 -110 -198 -180 -280
-308 -68 -104 -146 -243 -159 -281 -12 -39 -14 -39 -55 -14 -79 48 -126 157
-127 296 -1 79 3 100 32 173 25 64 44 94 84 134 87 85 148 126 213 142 74 18
71 18 119 5z m6007 -141 c133 -73 234 -207 268 -357 15 -63 7 -188 -15 -250
-18 -51 -85 -165 -124 -211 l-30 -35 -1 93 c0 131 -26 184 -104 217 -28 12
-34 21 -45 67 -18 80 -52 157 -105 237 -28 42 -44 76 -40 83 30 52 134 178
146 178 5 0 28 -10 50 -22z m-1944 -133 c-3 -3 -9 2 -12 12 -6 14 -5 15 5 6 7
-7 10 -15 7 -18z m215 -268 c104 -69 152 -81 322 -81 193 -1 259 16 438 112
21 11 44 26 52 32 11 9 24 5 59 -19 104 -72 218 -103 376 -103 l115 0 40 -43
c23 -23 47 -60 53 -81 62 -194 65 -209 72 -364 4 -85 13 -186 20 -225 6 -38
12 -133 13 -210 1 -158 -6 -181 -98 -363 -63 -126 -146 -197 -331 -287 -72
-35 -143 -67 -157 -70 -39 -10 -266 33 -295 56 -33 26 -72 25 -79 -1 -5 -19
-6 -19 -18 -3 -12 17 -27 16 -285 -5 -153 -13 -277 -19 -284 -14 -6 4 -42 20
-81 35 -129 50 -294 181 -382 305 -44 61 -46 65 -28 78 29 21 13 26 -45 13
-83 -18 -136 -6 -251 56 -43 24 -114 99 -146 156 -51 90 -66 214 -42 331 25
117 75 168 164 168 45 0 138 -35 174 -66 32 -27 52 -17 24 12 -21 21 -132 74
-155 74 -50 0 -48 14 7 36 82 34 240 142 308 211 103 105 174 224 219 369 l22
73 71 -72 c38 -40 96 -89 128 -110z m-3431 12 c109 -88 290 -205 434 -282 417
-221 703 -473 823 -724 l34 -72 -19 -43 c-26 -61 -165 -264 -216 -318 -96
-102 -174 -160 -289 -213 -359 -169 -370 -171 -754 -172 -307 0 -347 5 -530
68 -142 48 -216 99 -358 244 -88 89 -101 120 -116 278 -7 72 -18 185 -25 252
l-12 123 37 43 c51 58 257 244 474 427 201 169 322 284 398 378 28 34 52 62
54 62 1 0 31 -23 65 -51z m3761 -76 c-7 -2 -21 -2 -30 0 -10 3 -4 5 12 5 17 0
24 -2 18 -5z m-5161 -145 c19 -15 98 -156 98 -176 0 -10 -7 -9 -30 3 -38 20
-65 19 -86 -2 -14 -14 -15 -28 -9 -87 10 -87 10 -176 0 -237 -6 -40 -4 -49 18
-75 32 -36 46 -25 24 20 -13 28 -14 42 -5 73 6 24 8 83 3 161 -5 89 -3 122 5
122 25 0 53 -24 94 -80 l43 -59 -12 -48 c-7 -26 -18 -97 -24 -158 -20 -185
-12 -166 -95 -214 l-74 -42 -39 19 c-83 43 -133 123 -133 211 0 59 26 267 42
331 18 72 84 195 120 224 38 30 39 30 60 14z m6635 -150 c-2 -13 -4 -5 -4 17
-1 22 1 32 4 23 2 -10 2 -28 0 -40z m-120 0 c-3 -8 -6 -5 -6 6 -1 11 2 17 5
13 3 -3 4 -12 1 -19z m-2910 -20 c-3 -8 -6 -5 -6 6 -1 11 2 17 5 13 3 -3 4
-12 1 -19z m2790 -110 c-3 -8 -6 -5 -6 6 -1 11 2 17 5 13 3 -3 4 -12 1 -19z
m-3070 -365 c-3 -10 -5 -2 -5 17 0 19 2 27 5 18 2 -10 2 -26 0 -35z m-2979
-118 l-3 -25 -28 23 -27 22 27 35 28 35 3 -33 c2 -18 2 -44 0 -57z m-244 -102
c7 -114 28 -228 52 -278 7 -16 11 -20 9 -9 -3 12 -6 53 -6 91 -1 65 3 78 45
159 67 131 63 128 114 97 35 -21 42 -30 42 -57 0 -45 30 -273 42 -324 14 -57
80 -141 171 -220 82 -71 207 -137 325 -172 23 -7 42 -15 42 -17 0 -1 -20 -42
-44 -90 -45 -92 -96 -214 -96 -232 0 -13 -27 -15 -32 -3 -1 5 -41 38 -88 73
-135 102 -295 262 -361 363 -33 49 -59 90 -59 92 0 1 -46 80 -102 176 -55 95
-127 218 -158 273 l-56 100 60 32 c33 18 64 37 70 43 20 20 24 8 30 -97z
m2985 -25 c0 -27 -2 -29 -8 -13 -5 11 -6 26 -4 33 8 21 13 13 12 -20z m-349
-103 c16 -52 30 -106 30 -119 0 -19 -18 -38 -77 -83 -119 -90 -174 -183 -192
-327 l-6 -49 -35 51 c-62 91 -81 81 -110 -63 -11 -55 -25 -115 -31 -133 l-11
-34 -42 40 c-22 22 -79 70 -126 107 -47 38 -86 71 -87 74 -2 3 28 19 67 34
185 77 371 231 482 402 32 49 58 93 58 96 0 12 39 99 44 99 3 0 19 -43 36 -95z
m815 -16 c11 -17 -1 -21 -15 -4 -8 9 -8 15 -2 15 6 0 14 -5 17 -11z m-483 -41
c-9 -9 -12 -7 -12 12 0 19 3 21 12 12 9 -9 9 -15 0 -24z m1205 -144 c-3 -3
-12 -4 -19 -1 -8 3 -5 6 6 6 11 1 17 -2 13 -5z m190 -74 c59 -64 193 -159 256
-181 20 -7 37 -16 37 -19 0 -3 -16 -12 -35 -19 -41 -15 -77 -59 -98 -120 l-14
-44 -15 44 c-14 41 -18 44 -47 41 -27 -2 -31 1 -31 24 0 48 -32 93 -128 181
-147 134 -138 123 -99 124 26 0 58 8 115 28 2 1 28 -26 59 -59z m-388 -37 c-1
-10 -5 -29 -9 -43 -7 -21 -8 -19 -9 18 -1 23 4 42 9 42 6 0 10 -8 9 -17z
m1284 -150 c-7 -2 -21 -2 -30 0 -10 3 -4 5 12 5 17 0 24 -2 18 -5z m-90 -10
c-13 -2 -33 -2 -45 0 -13 2 -3 4 22 4 25 0 35 -2 23 -4z m-120 -10 c-13 -2
-33 -2 -45 0 -13 2 -3 4 22 4 25 0 35 -2 23 -4z m256 -37 c-7 -20 -17 -36 -22
-36 -5 0 -7 3 -5 8 3 4 11 21 18 39 19 43 25 34 9 -11z m-371 27 c-10 -2 -28
-2 -40 0 -13 2 -5 4 17 4 22 1 32 -1 23 -4z m-87 -12 c-12 -8 -51 -4 -51 5 0
2 15 4 33 4 22 0 28 -3 18 -9z m616 -6 c66 -8 165 -24 219 -35 190 -40 423
-61 647 -59 137 2 211 -1 218 -8 14 -14 -21 -119 -63 -188 -39 -65 -129 -178
-187 -236 l-46 -46 -295 -11 c-162 -7 -355 -12 -428 -12 l-132 0 -44 68 c-70
107 -91 236 -61 377 13 62 43 165 49 165 1 0 56 -7 123 -15z m-720 -1 c-3 -3
-12 -4 -19 -1 -8 3 -5 6 6 6 11 1 17 -2 13 -5z m-76 -20 c-18 -8 -36 -13 -39
-10 -6 7 37 25 58 25 8 -1 0 -7 -19 -15z m-2714 -41 c16 -16 40 -37 54 -48 82
-67 146 -123 165 -143 22 -23 22 -25 7 -74 -8 -28 -19 -63 -25 -77 -5 -14 -12
-70 -15 -123 l-6 -98 -57 0 c-49 0 -60 -4 -86 -29 -16 -16 -43 -56 -59 -88
-24 -47 -31 -73 -33 -140 -2 -45 0 -102 6 -127 5 -25 8 -46 5 -46 -8 0 -99 53
-228 133 -159 98 -226 127 -299 127 -67 0 -86 -20 -86 -92 0 -55 55 -233 106
-346 19 -41 33 -76 31 -78 -2 -2 -23 3 -47 10 -25 7 -101 21 -170 31 -69 9
-126 18 -127 19 -3 2 27 190 38 241 6 28 28 107 50 177 57 186 50 238 -33 238
-26 0 -41 5 -45 16 -3 8 18 61 50 122 30 59 58 126 62 149 4 24 11 45 16 49 5
3 30 -13 57 -34 112 -94 150 -108 193 -73 21 17 24 27 24 95 0 57 -4 79 -17
92 -24 24 -105 30 -152 10 -47 -20 -45 -20 -39 3 6 24 56 30 208 29 112 -1
283 35 365 78 25 13 48 23 51 24 3 0 19 -12 36 -27z m500 -5 c-3 -7 -5 -2 -5
12 0 14 2 19 5 13 2 -7 2 -19 0 -25z m2173 18 c0 -3 -4 -8 -10 -11 -5 -3 -10
-1 -10 4 0 6 5 11 10 11 6 0 10 -2 10 -4z m654 -43 c-4 -16 -11 -39 -15 -53
-6 -22 -7 -23 -8 -4 -2 34 11 84 20 84 5 0 6 -12 3 -27z m-699 -25 c-4 -13
-13 -36 -20 -53 -7 -16 -16 -37 -18 -45 -4 -10 -6 -8 -6 6 -1 11 3 24 8 30 5
5 14 26 21 47 6 20 14 37 16 37 3 0 2 -10 -1 -22z m-3640 -6 c5 -3 39 -5 75
-4 37 2 77 -2 91 -7 l24 -10 -27 0 c-16 -1 -43 -14 -63 -32 -28 -25 -35 -38
-35 -68 0 -57 22 -81 76 -81 25 0 59 7 76 16 l31 16 -7 -29 c-3 -15 -29 -73
-57 -128 -35 -70 -50 -109 -47 -130 3 -28 7 -30 51 -36 46 -5 67 -19 67 -46 0
-30 -23 -113 -31 -113 -6 0 -8 -4 -4 -9 3 -5 -3 -33 -14 -63 -23 -61 -54 -206
-72 -326 -11 -79 -13 -83 -33 -78 -34 8 -272 9 -353 1 -100 -10 -123 -3 -123
38 0 43 46 354 59 394 5 17 7 33 5 36 -3 2 0 17 7 33 6 16 13 40 15 54 12 71
28 131 36 136 4 3 8 12 8 20 0 9 24 77 54 152 29 75 65 170 80 209 l28 73 36
-6 c20 -3 41 -9 47 -12z m319 -22 c17 -1 17 -3 5 -16 -13 -12 -22 -11 -69 6
l-55 21 50 -6 c28 -2 59 -5 69 -5z m-73 -31 c40 -14 70 -39 52 -46 -6 -2 -24
-15 -40 -29 -67 -57 -132 -70 -159 -29 -22 34 -12 68 28 94 37 23 70 26 119
10z m281 -17 c16 -16 21 -88 8 -126 -10 -30 -16 -36 -39 -36 -16 0 -43 11 -62
24 -19 14 -53 37 -76 53 -24 15 -43 31 -43 34 0 3 28 20 63 38 49 26 70 32
101 28 21 -3 43 -10 48 -15z m2875 -14 c-3 -7 -5 -2 -5 12 0 14 2 19 5 13 2
-7 2 -19 0 -25z m910 -101 c-2 -23 -3 -1 -3 48 0 50 1 68 3 42 2 -26 2 -67 0
-90z m-2797 93 c0 -5 -5 -10 -11 -10 -5 0 -7 5 -4 10 3 6 8 10 11 10 2 0 4 -4
4 -10z m2113 -212 c2 -32 0 -58 -5 -58 -4 0 -8 30 -7 68 1 77 6 73 12 -10z
m712 -36 c-5 -6 -25 61 -24 82 0 12 6 -1 14 -29 7 -27 12 -51 10 -53z m-642
-9 c-7 -2 -19 -2 -25 0 -7 3 -2 5 12 5 14 0 19 -2 13 -5z m100 0 c-7 -2 -19
-2 -25 0 -7 3 -2 5 12 5 14 0 19 -2 13 -5z m52 -29 c15 -14 25 -27 23 -29 -3
-3 -17 9 -33 25 -35 37 -28 40 10 4z m-45 -9 c39 -20 77 -102 97 -208 15 -86
15 -88 -11 -191 -34 -137 -77 -227 -132 -275 -46 -41 -187 -115 -192 -101 -2
4 2 43 7 86 6 44 16 203 22 354 6 151 13 285 15 298 9 46 132 69 194 37z m575
-25 c8 -16 30 -46 48 -67 17 -20 25 -32 16 -27 -22 12 -62 63 -77 97 -16 36
-6 35 13 -3z m-475 -56 c17 -52 7 -51 -11 1 -9 25 -13 42 -8 40 4 -3 13 -21
19 -41z m491 -21 c13 -16 12 -17 -3 -4 -10 7 -18 15 -18 17 0 8 8 3 21 -13z
m-3118 -10 c-7 -2 -19 -2 -25 0 -7 3 -2 5 12 5 14 0 19 -2 13 -5z m3231 -19
c24 -9 19 -34 -6 -34 -17 0 -19 3 -9 9 11 7 10 11 -5 20 -20 11 -6 15 20 5z
m246 -4 c0 -5 -5 -10 -11 -10 -5 0 -7 5 -4 10 3 6 8 10 11 10 2 0 4 -4 4 -10z
m-818 -68 c-6 -18 -8 -13 -16 33 l-6 40 13 -30 c8 -16 12 -36 9 -43z m527 64
c-2 -2 -22 -6 -44 -9 -28 -5 -34 -4 -20 3 19 8 73 14 64 6z m-3265 -22 c3 -9
6 -23 6 -32 0 -9 12 -42 26 -72 19 -41 37 -122 70 -318 24 -144 45 -266 48
-270 3 -5 14 -32 26 -61 l21 -54 -41 7 c-111 18 -212 100 -273 222 -61 123
-104 301 -92 383 11 79 72 187 116 204 31 12 87 7 93 -9z m3161 -4 c-11 -5
-29 -9 -40 -9 -17 -1 -17 1 -5 9 8 5 26 9 40 9 23 0 23 -1 5 -9z m403 -15 c-3
-3 -9 2 -12 12 -6 14 -5 15 5 6 7 -7 10 -15 7 -18z m-291 9 c-3 -3 -12 -4 -19
-1 -8 3 -5 6 6 6 11 1 17 -2 13 -5z m-182 -13 c-17 -15 -186 -84 -192 -77 -3
3 7 10 23 16 16 6 38 14 49 19 11 5 36 15 55 22 19 7 39 16 45 21 12 11 32 11
20 -1z m125 -1 c-8 -5 -24 -9 -35 -9 -16 1 -16 2 5 9 35 11 48 11 30 0z m374
-51 c11 -26 12 -36 3 -36 -7 0 -12 10 -13 21 0 12 -4 30 -9 41 -4 11 -5 18 -2
14 4 -3 13 -21 21 -40z m-1228 -96 c-2 -71 -7 -153 -10 -183 -4 -30 -6 -76 -6
-102 1 -27 -4 -48 -9 -48 -6 0 -11 14 -11 32 0 17 -6 39 -14 47 -7 9 -16 32
-19 51 l-6 35 18 -38 c10 -20 21 -34 24 -30 4 3 7 35 7 70 0 35 4 63 10 63 11
0 14 138 4 164 -7 19 -25 22 -21 4 1 -7 -7 -13 -17 -13 -11 0 -21 -5 -23 -12
-3 -7 -10 -10 -16 -7 -15 5 -134 -41 -121 -48 5 -3 3 -3 -4 -1 -26 6 -58 -8
-76 -35 -12 -19 -27 -27 -49 -28 l-32 -2 33 11 c18 6 32 17 32 26 0 11 22 24
63 40 111 42 205 89 223 110 10 12 20 21 21 21 2 0 1 -57 -1 -127z m750 112
c-11 -8 -27 -15 -35 -14 -9 0 -2 7 14 14 39 18 45 18 21 0z m-363 -62 c3 -24
1 -43 -4 -43 -5 0 -9 21 -9 47 0 56 5 54 13 -4z m307 42 c0 -8 -52 -26 -58
-20 -3 2 6 9 19 14 28 11 39 13 39 6z m-95 -43 c-30 -18 -60 -18 -71 0 -3 5 5
6 19 2 14 -3 34 -1 44 5 32 18 39 12 8 -7z m655 -30 c0 -15 -2 -15 -10 -2 -13
20 -13 33 0 25 6 -3 10 -14 10 -23z m-3464 8 c77 -14 284 -72 284 -79 -1 -10
-70 -39 -70 -30 0 5 6 9 13 9 8 0 7 4 -3 11 -12 8 -10 9 9 4 15 -5 21 -3 17 3
-3 6 -35 14 -71 17 -40 5 -62 11 -58 18 4 6 -4 8 -23 3 -18 -4 -24 -3 -16 2
11 7 9 10 -7 15 -11 3 -19 1 -18 -5 1 -5 -17 -11 -40 -12 -49 -3 -49 2 -1 15
l33 9 -37 -5 c-21 -2 -38 0 -38 6 0 5 -6 9 -14 9 -8 0 -18 5 -21 10 -8 12 -11
12 61 0z m2114 -5 c0 -3 -15 -12 -32 -20 -23 -10 -27 -14 -14 -15 11 0 17 -2
14 -5 -3 -4 -18 -3 -34 1 -27 7 -27 7 17 25 52 21 49 20 49 14z m-2891 -52
c40 -20 101 -54 135 -76 104 -68 220 -134 246 -140 40 -11 46 -18 69 -89 13
-38 45 -101 71 -143 59 -90 122 -135 230 -164 77 -21 106 -43 94 -71 -11 -23
-5 -88 12 -128 18 -44 12 -62 -21 -62 -41 0 -30 -30 30 -84 30 -27 55 -54 55
-60 0 -6 -9 -20 -21 -29 -18 -16 -23 -17 -37 -4 -10 8 -62 38 -117 66 -55 28
-134 70 -175 92 -222 122 -325 167 -500 219 -80 24 -160 64 -160 81 0 6 16 29
35 52 42 48 41 61 -9 164 -18 38 -54 131 -80 209 -47 139 -47 141 -32 179 16
37 17 37 59 31 23 -4 75 -23 116 -43z m4048 39 c6 -4 -15 -7 -48 -7 -32 0 -59
3 -59 8 0 9 91 9 107 -1z m-3292 -72 c7 -8 16 -25 19 -37 6 -19 3 -23 -13 -23
-14 0 -21 6 -21 19 0 10 -2 38 -4 62 -2 24 -1 33 1 19 3 -14 11 -32 18 -40z
m3155 51 c0 -10 -101 -53 -108 -46 -3 3 12 12 34 20 21 9 46 20 54 25 19 12
20 12 20 1z m126 -16 c34 -23 54 -77 54 -145 0 -108 -57 -210 -166 -296 -32
-26 -51 -44 -41 -40 54 19 64 17 81 -10 21 -31 17 -81 -9 -121 -24 -36 -123
-77 -282 -119 -253 -65 -347 -105 -538 -230 l-30 -19 23 32 c12 17 22 41 22
52 0 18 -6 21 -42 21 -73 0 -77 9 -39 87 18 38 33 84 34 103 2 32 -1 35 -35
44 -48 12 -48 26 -2 102 25 40 37 72 38 99 1 36 5 42 57 77 53 35 84 72 124
143 14 25 15 26 11 6 -5 -22 -3 -23 37 -17 81 13 303 94 492 178 164 74 178
77 211 53z m73 -36 c24 -50 11 -52 -14 -1 -28 54 -29 55 -16 48 6 -4 20 -25
30 -47z m-739 32 c0 -6 -4 -13 -10 -16 -5 -3 -10 1 -10 9 0 9 5 16 10 16 6 0
10 -4 10 -9z m-700 -11 c0 -5 -19 -15 -41 -22 l-42 -12 34 -13 c32 -13 33 -13
4 -7 -47 9 -77 7 -85 -6 -4 -6 -10 -11 -14 -10 -4 1 -47 -10 -96 -26 -60 -18
-86 -31 -78 -37 8 -5 5 -6 -9 -2 -13 3 -48 -4 -85 -18 -35 -14 -89 -32 -120
-42 -32 -9 -58 -19 -58 -22 0 -3 7 -3 15 1 8 3 15 1 15 -4 0 -6 -17 -10 -37
-11 -21 -1 -49 -5 -63 -9 l-25 -8 25 -2 c25 -2 25 -2 -3 -10 -16 -5 -35 -14
-43 -21 -8 -6 -18 -9 -21 -5 -4 4 -1 11 7 16 13 9 13 10 0 10 -8 -1 -24 -7
-34 -15 -20 -15 -20 -15 0 -16 10 0 14 -3 7 -5 -7 -3 -20 -1 -30 4 -13 7 -24
6 -37 -4 -16 -11 -22 -11 -35 -1 -12 9 -13 9 -7 0 4 -7 3 -13 -2 -13 -6 0 -12
6 -15 14 -3 8 -23 19 -44 26 -21 7 -52 21 -70 32 -19 11 -34 15 -38 9 -6 -11
11 -50 23 -52 4 0 21 -3 37 -5 23 -3 27 -2 15 6 -11 8 -8 9 15 4 55 -12 54
-19 -3 -21 -70 -3 -102 11 -102 46 0 16 -8 31 -21 39 -12 8 -18 9 -14 3 8 -14
-1 -14 -26 0 -11 5 -16 15 -13 21 4 6 3 8 -3 5 -6 -4 -37 2 -68 13 -32 11 -64
20 -72 20 -23 0 -14 -18 12 -24 32 -8 73 -46 50 -46 -8 0 -15 4 -15 10 0 5
-15 13 -32 18 -26 6 -33 14 -33 33 0 23 -15 37 -43 38 -7 1 -11 -2 -9 -6 7
-11 -59 -10 -70 1 -4 5 2 5 16 1 15 -5 21 -3 17 3 -4 6 3 8 16 6 l23 -5 -22
10 c-16 7 -35 6 -66 -6 -54 -20 -74 -13 -92 32 -11 25 -20 33 -33 29 -15 -5
-15 -4 -2 6 13 10 11 11 -7 7 -12 -3 -24 0 -26 7 -3 7 -11 3 -22 -9 -9 -11
-13 -14 -9 -6 5 11 3 13 -9 8 -47 -19 -49 -18 -15 6 l37 26 128 -44 c302 -102
408 -140 411 -147 2 -5 7 -6 11 -4 4 3 45 -6 91 -20 46 -13 96 -24 111 -24 15
0 30 -4 33 -9 6 -8 87 10 131 29 11 5 92 34 180 63 296 101 430 149 455 163
30 16 40 17 40 4z m1600 0 c0 -5 -2 -10 -4 -10 -3 0 -8 5 -11 10 -3 6 -1 10 4
10 6 0 11 -4 11 -10z m-3302 -25 c3 -3 -4 -5 -16 -5 -11 0 -23 4 -27 9 -6 10
33 6 43 -4z m1772 4 c0 -15 -26 -39 -42 -39 -9 1 -7 5 5 14 9 7 17 18 17 25 0
6 5 11 10 11 6 0 10 -5 10 -11z m591 -81 c-11 -31 -17 -59 -14 -62 4 -3 1 -6
-6 -6 -7 0 -11 6 -9 13 23 80 44 135 46 125 1 -7 -6 -39 -17 -70z m946 60 c-3
-8 -6 -5 -6 6 -1 11 2 17 5 13 3 -3 4 -12 1 -19z m-521 3 c-3 -5 -15 -11 -26
-14 -17 -4 -19 -3 -9 9 12 15 44 20 35 5z m-2819 -17 c-3 -3 -12 -4 -19 -1 -8
3 -5 6 6 6 11 1 17 -2 13 -5z m-107 -14 c0 -6 -7 -13 -15 -16 -17 -7 -21 -54
-5 -54 6 0 10 5 10 12 0 6 3 9 6 6 3 -4 0 -17 -7 -29 -12 -23 -12 -23 -20 -4
-7 18 -8 18 -8 2 -1 -10 3 -27 9 -37 6 -12 6 -29 -2 -51 -8 -24 -8 -34 0 -37
7 -2 9 -15 5 -33 -3 -17 0 -35 7 -44 7 -8 10 -24 7 -35 -6 -24 -8 -24 68 -5
33 8 69 14 80 14 11 -1 -11 -9 -50 -19 -41 -10 -59 -18 -43 -19 15 0 30 -6 34
-12 5 -9 -4 -10 -31 -5 -58 11 -85 24 -85 41 0 9 5 13 11 9 8 -5 8 -1 0 14 -6
11 -11 34 -11 49 0 16 -5 34 -12 41 -8 8 -8 15 -1 24 6 7 10 43 9 79 0 41 4
76 13 92 14 27 31 36 31 17z m2097 -22 c-3 -7 -5 -2 -5 12 0 14 2 19 5 13 2
-7 2 -19 0 -25z m20 -45 c-2 -16 -4 -3 -4 27 0 30 2 43 4 28 2 -16 2 -40 0
-55z m738 67 c-27 -12 -43 -12 -25 0 8 5 22 9 30 9 10 0 8 -3 -5 -9z m-1175
-20 c0 -5 -5 -10 -11 -10 -5 0 -7 5 -4 10 3 6 8 10 11 10 2 0 4 -4 4 -10z
m-1737 -90 c4 -38 3 -59 -2 -50 -12 21 -25 149 -13 130 5 -8 12 -44 15 -80z
m2837 80 c-8 -5 -22 -9 -30 -9 -10 0 -8 3 5 9 27 12 43 12 25 0z m-1155 -10
c-16 -4 -24 -8 -16 -9 8 0 12 -3 9 -6 -3 -3 -13 -2 -22 1 -24 9 -1 24 34 23
23 -1 23 -2 -5 -9z m1101 -9 c-3 -5 -16 -11 -28 -14 -13 -2 -32 -8 -43 -12
-20 -7 -20 -7 0 8 11 8 32 17 45 20 14 2 26 5 28 6 2 0 1 -3 -2 -8z m-2391
-11 c3 -5 1 -10 -4 -10 -6 0 -11 5 -11 10 0 6 2 10 4 10 3 0 8 -4 11 -10z
m1235 0 c13 -8 13 -10 -2 -10 -9 0 -20 5 -23 10 -8 13 5 13 25 0z m105 0 c-3
-5 -11 -10 -16 -10 -6 0 -7 5 -4 10 3 6 11 10 16 10 6 0 7 -4 4 -10z m1815
-10 c0 -5 -2 -10 -4 -10 -3 0 -8 5 -11 10 -3 6 -1 10 4 10 6 0 11 -4 11 -10z
m-873 -16 c-3 -3 -12 -4 -19 -1 -8 3 -5 6 6 6 11 1 17 -2 13 -5z m-1191 -19
c-11 -8 -25 -15 -30 -16 -6 0 -2 -5 9 -10 17 -8 15 -8 -7 -4 -16 3 -28 1 -28
-5 0 -5 -5 -10 -11 -10 -5 0 -7 5 -3 12 5 8 2 9 -9 5 -40 -16 -50 -17 -27 -3
14 8 32 16 40 16 8 0 26 7 40 14 33 19 50 19 26 1z m1129 0 c-39 -18 -67 -19
-35 -1 14 8 34 14 45 14 15 0 13 -3 -10 -13z m737 -27 c-9 -9 -12 -7 -12 12 0
19 3 21 12 12 9 -9 9 -15 0 -24z m-3296 -49 c-2 -38 -6 -72 -9 -75 -4 -5 -4
18 1 119 1 15 4 27 7 27 3 0 4 -32 1 -71z m924 51 c18 -12 2 -12 -25 0 -13 6
-15 9 -5 9 8 0 22 -4 30 -9z m-223 -6 c-3 -3 -12 -4 -19 -1 -8 3 -5 6 6 6 11
1 17 -2 13 -5z m1220 -19 c0 -8 -6 -15 -12 -15 -12 0 -67 -22 -155 -62 -25
-11 -105 -45 -179 -74 -73 -30 -147 -62 -163 -72 l-30 -19 31 1 c17 0 31 5 31
10 0 4 11 5 25 2 35 -9 270 84 382 151 44 27 58 31 65 21 7 -10 8 -10 6 2 -3
25 12 60 28 60 19 0 18 -39 -1 -46 -8 -4 -15 -13 -15 -21 0 -11 -7 -13 -26 -9
-14 4 -23 3 -20 -2 3 -5 -9 -22 -26 -37 -20 -18 -29 -22 -25 -12 7 19 -1 21
-23 7 -16 -10 -15 -11 15 -29 l20 -13 -20 7 c-27 9 -83 17 -69 10 6 -3 9 -19
6 -35 -2 -16 -8 -28 -12 -25 -5 3 -6 14 -3 25 7 28 -17 25 -46 -5 -13 -14 -28
-25 -35 -25 -6 0 -4 5 4 10 13 8 13 10 -2 10 -9 0 -20 -4 -23 -10 -3 -5 -18
-11 -33 -11 -24 -2 -23 -3 8 -9 29 -6 26 -7 -15 -4 -37 3 -46 1 -35 -7 13 -9
13 -10 -2 -6 -22 8 -78 -14 -78 -30 0 -7 -4 -13 -10 -13 -5 0 -10 5 -10 10 0
6 -7 10 -16 10 -9 0 -12 -5 -8 -12 6 -10 5 -10 -8 0 -17 13 -81 6 -72 -9 6
-10 -25 0 -43 13 -14 11 31 53 82 78 17 8 33 19 37 25 5 6 8 5 8 -3 0 -7 -12
-17 -26 -23 -15 -5 -24 -12 -21 -15 2 -3 21 4 41 14 24 13 32 22 24 26 -7 3
-1 4 15 1 29 -6 39 6 41 48 1 14 10 23 29 28 35 9 35 2 1 -12 -15 -5 -25 -12
-22 -14 9 -9 67 7 65 17 -1 6 4 12 11 14 8 1 8 0 1 -3 -8 -4 -8 -7 1 -13 8 -5
-5 -14 -34 -25 -25 -10 -46 -22 -46 -26 0 -12 -3 -13 62 20 32 17 52 32 45 35
-6 3 2 4 18 1 17 -3 37 -1 45 5 8 5 10 10 4 10 -22 0 -9 44 18 60 25 13 29 13
45 -3 17 -17 16 -17 -13 -11 -34 7 -50 -6 -40 -33 6 -14 8 -14 24 0 9 9 21 15
25 15 17 0 72 27 80 39 5 8 16 11 28 8 11 -4 19 -2 19 4 0 6 6 11 13 11 8 0
14 -7 14 -15z m-1638 -6 c12 -8 9 -9 -11 -5 -15 4 -30 2 -33 -4 -3 -5 1 -10 9
-10 18 0 108 -41 117 -53 3 -5 19 -6 35 -2 23 4 25 3 9 -4 l-20 -10 20 -1 c27
-3 27 -3 55 4 21 5 20 3 -5 -9 -29 -14 -27 -16 25 -19 33 -2 77 -32 58 -39 -7
-3 -3 -6 10 -6 12 -1 45 -12 73 -26 27 -14 55 -25 62 -24 24 3 37 -1 37 -12 0
-5 -4 -7 -10 -4 -5 3 -10 4 -10 1 0 -3 14 -13 30 -21 17 -9 28 -20 25 -25 -4
-6 1 -10 9 -10 9 0 16 -5 16 -11 0 -12 -59 -8 -135 10 -37 8 -37 9 -10 10 22
1 26 4 16 10 -11 7 -5 10 20 13 33 3 32 4 -42 41 -42 20 -79 37 -82 37 -7 0
-85 34 -202 89 -113 53 -145 65 -153 56 -4 -4 -1 -10 6 -12 6 -3 10 -8 7 -13
-7 -11 9 -22 110 -75 119 -62 248 -115 279 -115 14 0 28 -5 32 -11 9 -14 -85
-2 -103 13 -7 6 -21 7 -30 2 -26 -11 -100 -15 -83 -4 8 5 11 12 7 17 -5 4 -12
1 -16 -6 -5 -7 -15 -11 -22 -9 -18 7 -51 -10 -44 -21 2 -5 22 -12 42 -15 21
-4 69 -14 107 -23 52 -12 71 -14 74 -5 2 8 23 11 55 10 l52 -1 -50 -6 c-27 -3
-45 -9 -39 -13 6 -4 28 -5 48 -3 34 5 36 4 22 -10 -14 -14 -24 -14 -103 0 -48
9 -171 37 -273 63 -143 37 -186 52 -188 65 -2 13 4 17 30 16 31 -1 31 -2 8 -9
-23 -6 -22 -8 15 -14 22 -4 55 -12 74 -18 44 -14 123 -19 116 -8 -3 4 5 6 17
3 l23 -5 -23 17 c-16 12 -22 25 -20 43 2 21 -1 26 -14 24 -10 -2 -18 2 -18 7
0 6 -18 20 -40 31 -22 11 -40 17 -40 12 0 -4 14 -13 31 -19 17 -7 28 -17 24
-22 -10 -17 -66 -13 -87 6 -21 19 -23 36 -5 63 8 14 9 23 2 28 -5 4 -10 16
-11 27 0 17 7 20 50 22 27 1 57 -3 65 -8z m1526 -7 c-3 -3 -11 0 -18 7 -9 10
-8 11 6 5 10 -3 15 -9 12 -12z m182 -4 c-3 -8 -6 -5 -6 6 -1 11 2 17 5 13 3
-3 4 -12 1 -19z m1288 -11 c-4 -15 -13 -31 -21 -38 -10 -8 -9 0 4 29 19 45 27
48 17 9z m252 1 c-3 -7 -5 -2 -5 12 0 14 2 19 5 13 2 -7 2 -19 0 -25z m-3207
2 c0 -5 -2 -10 -4 -10 -3 0 -8 5 -11 10 -3 6 -1 10 4 10 6 0 11 -4 11 -10z
m1767 -27 c-3 -10 -5 -4 -5 12 0 17 2 24 5 18 2 -7 2 -21 0 -30z m-888 3 c-15
-13 -49 -25 -49 -17 0 5 8 12 18 14 24 6 36 8 31 3z m921 -26 c5 0 8 -13 8
-28 -1 -24 -8 -31 -60 -52 -56 -24 -135 -79 -113 -80 6 0 45 17 88 39 42 21
77 35 77 30 0 -23 -32 -142 -53 -194 -28 -70 -104 -183 -163 -240 -74 -73
-415 -236 -489 -235 -12 1 1 11 33 26 57 28 99 76 149 171 33 62 26 95 -27
131 -35 24 -35 24 -240 18 -113 -4 -282 -7 -377 -7 -176 0 -303 -14 -393 -44
-47 -16 -50 -19 -50 -51 0 -39 35 -113 76 -162 31 -37 104 -78 174 -98 60 -17
24 -17 -80 0 -171 28 -472 173 -548 266 -18 22 -49 75 -68 117 -20 43 -40 87
-46 97 -14 27 -48 126 -48 142 0 20 76 8 184 -27 253 -83 469 -121 791 -140
376 -22 723 24 930 122 36 18 64 33 63 35 -2 1 -48 -13 -103 -32 -131 -46
-225 -68 -238 -55 -6 6 -4 9 4 8 34 -2 78 17 82 34 3 10 13 19 23 19 16 0 16
-1 -2 -15 -20 -15 -13 -18 23 -9 13 4 20 10 17 15 -3 5 8 6 24 3 16 -3 32 -1
36 4 9 14 -26 24 -61 17 -27 -5 -28 -5 -3 5 23 10 46 9 86 -7 13 -5 15 -3 9 7
-6 10 0 11 30 6 25 -5 35 -4 30 3 -3 6 2 11 12 11 10 0 29 7 42 16 18 13 20
18 10 26 -10 6 -7 7 9 3 17 -5 22 -2 22 12 0 15 2 16 10 3 9 -13 14 -7 11 13
0 4 7 7 17 7 11 0 27 9 37 20 15 16 15 22 5 35 -7 8 -8 15 -2 15 13 0 24 -29
16 -42 -4 -6 -1 -8 7 -6 9 3 14 19 13 44 -1 21 0 31 3 22 2 -10 8 -18 13 -18z
m1444 -40 l6 -35 -13 32 c-6 17 -15 35 -19 39 -5 4 -8 14 -8 23 0 27 27 -20
34 -59z m-1524 31 c0 -6 -4 -13 -10 -16 -5 -3 -10 1 -10 9 0 9 5 16 10 16 6 0
10 -4 10 -9z m1200 -18 c0 -5 -18 -28 -40 -53 -41 -46 -48 -64 -30 -75 6 -4 7
-11 4 -17 -4 -6 -13 1 -21 17 -14 26 -13 29 18 59 17 17 38 41 47 54 15 23 22
28 22 15z m-3203 -59 c-3 -3 -12 -4 -19 -1 -8 3 -5 6 6 6 11 1 17 -2 13 -5z
m618 -4 c-19 -7 -19 -7 0 -18 33 -19 7 -13 -30 7 l-35 18 43 0 c28 0 35 -2 22
-7z m1295 -5 c-14 -8 -19 -14 -12 -15 16 0 16 -17 -1 -23 -9 -3 -13 2 -11 16
1 12 3 25 3 30 1 4 11 7 24 7 22 -1 22 -1 -3 -15z m1634 -24 c-6 -6 -24 19
-24 34 1 6 7 1 15 -9 8 -11 12 -22 9 -25z m-2874 19 c8 -5 12 -11 9 -14 -3 -3
-14 1 -25 9 -21 16 -8 20 16 5z m-1906 -10 c45 -1 261 -49 264 -60 2 -6 11
-10 19 -10 10 0 6 -11 -16 -35 -63 -72 -32 -122 99 -163 41 -13 82 -26 90 -30
8 -3 19 -4 24 -3 5 1 35 -9 65 -23 31 -13 78 -34 106 -46 39 -17 46 -23 35
-31 -12 -8 -10 -9 7 -4 14 4 39 -3 70 -19 26 -15 54 -26 60 -26 7 0 13 -4 13
-8 0 -4 14 -13 31 -19 27 -10 29 -14 18 -32 -7 -11 -17 -17 -23 -14 -5 4 -6 1
-1 -6 7 -13 -45 -96 -100 -158 -38 -43 -147 -105 -172 -97 -14 5 -15 4 -4 -4
11 -8 4 -15 -30 -32 -46 -22 -180 -69 -259 -90 -25 -6 -61 -20 -81 -30 l-36
-19 -54 50 c-30 27 -73 66 -96 86 -24 19 -40 39 -37 44 3 5 -1 6 -9 3 -8 -3
-27 6 -43 19 -87 70 -452 307 -474 307 -24 0 2 -19 219 -165 357 -240 454
-322 530 -451 40 -69 41 -72 27 -105 -24 -54 -48 -84 -96 -121 -95 -72 -123
-88 -149 -83 -20 4 -22 3 -7 -3 17 -8 17 -9 -5 -23 -31 -19 -77 -39 -91 -39
-5 0 -7 7 -4 16 3 8 2 12 -4 9 -5 -3 -38 13 -72 36 -35 23 -94 63 -133 88 -58
38 -188 137 -231 176 -6 6 -26 21 -44 35 -18 14 -38 30 -45 37 -6 6 -41 35
-76 64 -128 105 -289 291 -347 403 -33 63 -52 117 -46 127 2 4 0 10 -6 14 -33
20 17 199 69 243 14 13 36 31 47 42 21 17 199 92 300 124 78 26 191 33 439 29
127 -2 243 -3 259 -3z m1463 -3 c4 -5 -9 -7 -29 -5 -20 1 -34 6 -32 10 6 10
50 6 61 -5z m1463 -37 c0 -5 -15 -10 -32 -9 -28 0 -30 2 -13 9 28 12 45 12 45
0z m-946 -16 c9 -3 16 -11 16 -16 0 -7 -4 -7 -12 0 -7 5 -24 12 -38 15 -22 4
-22 4 -3 6 12 0 28 -2 37 -5z m-364 -24 c20 -6 21 -8 5 -8 -11 0 -31 4 -45 8
-20 6 -21 8 -5 8 11 0 31 -4 45 -8z m104 -6 c9 -3 13 -10 10 -15 -3 -5 -10 -6
-16 -3 -6 4 -25 7 -42 7 -26 -1 -28 0 -11 7 25 11 39 12 59 4z m2666 -4 c0 -5
-4 -10 -10 -10 -5 0 -10 5 -10 10 0 6 5 10 10 10 6 0 10 -4 10 -10z m-1784
-15 c-16 -16 -32 -19 -83 -17 -18 1 -33 7 -33 12 0 12 40 13 59 1 10 -6 22 -5
35 5 27 19 41 18 22 -1z m31 -10 c-8 -19 -2 -22 58 -30 36 -5 46 -4 35 4 -20
14 1 14 37 -1 26 -11 23 -12 -52 -25 -82 -13 -454 -30 -445 -20 3 3 61 9 128
12 67 3 132 10 145 15 19 8 20 9 3 9 -11 1 -17 4 -13 7 3 3 15 3 28 -1 17 -6
19 -9 8 -16 -10 -6 -8 -9 9 -9 13 0 21 4 17 9 -3 6 3 14 12 20 10 6 14 11 9
11 -5 0 -3 7 4 15 16 19 24 19 17 0z m73 -7 c0 -6 -7 -7 -16 -4 -9 3 -22 6
-30 6 -8 0 -14 4 -14 8 0 5 14 7 30 4 17 -2 30 -9 30 -14z m1673 -3 c4 -8 2
-17 -3 -20 -6 -4 -10 3 -10 14 0 25 6 27 13 6z m-2459 -11 c9 -3 14 -9 11 -14
-7 -11 115 -18 244 -14 136 5 140 0 18 -23 -38 -7 -318 17 -337 29 -11 6 -4 8
23 5 36 -3 50 6 25 16 -7 3 -10 6 -6 6 3 1 13 -2 22 -5z m486 -6 c-11 -4 -79
-6 -152 -5 -73 1 -119 4 -103 7 43 9 277 6 255 -2z m75 2 c-3 -5 2 -10 11 -10
10 0 15 -2 12 -5 -3 -3 -20 -2 -39 2 -33 7 -33 7 -9 14 14 4 26 7 28 8 2 1 0
-3 -3 -9z m2393 -15 c-20 -14 -45 -25 -55 -25 -10 0 2 11 27 25 59 31 74 31
28 0z m-2885 8 c-7 -2 -19 -2 -25 0 -7 3 -2 5 12 5 14 0 19 -2 13 -5z m87 -3
c0 -5 -5 -10 -11 -10 -5 0 -7 5 -4 10 3 6 8 10 11 10 2 0 4 -4 4 -10z m2285
-39 c-3 -12 -10 -21 -15 -21 -5 0 -4 11 2 25 13 29 23 26 13 -4z m430 9 c3 -5
-1 -10 -9 -10 -9 0 -16 5 -16 10 0 6 4 10 9 10 6 0 13 -4 16 -10z m-145 -50
c-58 -21 -147 -57 -199 -79 -51 -23 -98 -40 -103 -39 -16 6 357 156 387 157
11 0 -27 -17 -85 -39z m170 16 c0 -11 -19 -15 -25 -6 -3 5 1 10 9 10 9 0 16
-2 16 -4z m-500 -24 c0 -8 -64 -42 -78 -42 -4 0 11 11 33 24 48 29 45 28 45
18z m-3083 -79 c-3 -10 -5 -4 -5 12 0 17 2 24 5 18 2 -7 2 -21 0 -30z m2983
27 c-8 -5 -22 -9 -30 -9 -10 0 -8 3 5 9 27 12 43 12 25 0z m-95 -29 c-49 -20
-84 -28 -90 -22 -4 3 13 11 37 17 50 14 83 17 53 5z m-1391 -43 c9 -35 7 -82
-6 -139 -11 -46 -18 -56 -58 -81 -168 -107 -572 -116 -775 -18 -66 32 -122 98
-130 154 -4 26 -5 50 -2 53 3 3 32 12 64 20 42 12 144 17 378 22 582 13 522
14 529 -11z m1286 18 c0 -11 -19 -15 -25 -6 -3 5 1 10 9 10 9 0 16 -2 16 -4z
m250 -48 c-35 -15 -65 -26 -67 -24 -6 6 111 63 121 58 5 -3 -19 -18 -54 -34z
m-350 18 c-19 -7 -43 -17 -52 -21 -10 -4 -18 -3 -18 2 0 11 53 31 85 32 12 0
5 -5 -15 -13z m-85 -25 c-15 -13 -62 -26 -50 -13 6 5 19 12 30 15 11 3 22 5
25 6 2 0 0 -3 -5 -8z m-89 -36 c-11 -8 -25 -15 -30 -15 -6 1 0 7 14 15 32 19
40 18 16 0z m393 -19 c-21 -16 -129 -64 -129 -58 0 5 18 17 40 27 22 10 38 21
36 24 -2 3 10 7 26 8 17 1 29 1 27 -1z m-459 -14 c0 -5 -19 -18 -42 -31 -24
-12 -70 -39 -103 -61 -59 -38 -102 -56 -55 -23 24 17 192 121 198 122 1 1 2
-3 2 -7z m-2450 -12 c0 -5 -2 -10 -4 -10 -3 0 -8 5 -11 10 -3 6 -1 10 4 10 6
0 11 -4 11 -10z m3300 -50 c-8 -5 -19 -10 -25 -10 -5 0 -3 5 5 10 8 5 20 10
25 10 6 0 3 -5 -5 -10z m-650 -56 c-102 -56 -295 -145 -279 -129 10 9 323 164
334 164 6 0 -19 -15 -55 -35z m-441 -194 c6 -19 11 -65 11 -102 0 -69 35 -576
46 -663 8 -70 62 -368 70 -391 14 -40 -23 11 -95 131 -85 143 -118 196 -183
293 -48 73 -48 74 -39 128 4 30 6 65 4 78 -3 13 8 83 23 157 15 74 39 202 53
284 20 117 32 158 51 185 l25 35 11 -50 c7 -28 17 -66 23 -85z m-1371 93 c-10
-2 -28 -2 -40 0 -13 2 -5 4 17 4 22 1 32 -1 23 -4z m105 -10 c-13 -2 -35 -2
-50 0 -16 2 -5 4 22 4 28 0 40 -2 28 -4z m137 -18 c0 -2 -10 -20 -22 -38 -13
-19 -27 -42 -33 -51 -9 -15 -15 -11 -52 25 -24 23 -43 45 -43 50 0 4 28 10 63
12 34 2 68 4 75 5 6 1 12 0 12 -3z m1987 -17 c-3 -8 -6 -5 -6 6 -1 11 2 17 5
13 3 -3 4 -12 1 -19z m-736 -3 c-18 -8 -41 -15 -50 -14 -22 1 39 28 64 28 14
0 9 -4 -14 -14z m763 -65 c10 -13 9 -13 -6 -1 -10 7 -18 21 -17 30 0 13 1 14
6 1 3 -8 11 -22 17 -30z m-1964 -124 c0 -3 -4 -8 -10 -11 -5 -3 -10 -1 -10 4
0 6 5 11 10 11 6 0 10 -2 10 -4z m-1940 -18 c0 -7 -14 -112 -30 -233 -16 -121
-31 -239 -34 -262 -21 -192 -38 -330 -43 -343 -6 -15 -11 -71 -12 -123 0 -16
-4 -34 -8 -40 -4 -7 -8 -25 -9 -41 -2 -36 -14 -43 -92 -52 -47 -5 -89 -1 -168
16 -58 12 -111 19 -119 17 -16 -7 -39 18 -31 32 11 18 -48 224 -131 456 -65
182 -68 174 39 105 51 -33 96 -60 100 -60 3 0 10 -10 13 -22 4 -13 19 -35 33
-50 34 -37 96 -38 167 -4 55 27 85 55 137 131 50 73 61 107 60 189 -1 82 -13
117 -66 200 l-36 56 43 1 c23 0 69 9 102 19 75 22 85 23 85 8z m-153 -310 c-2
-13 -4 -3 -4 22 0 25 2 35 4 23 2 -13 2 -33 0 -45z m1628 31 c11 -16 1 -19
-13 -3 -7 8 -8 14 -3 14 5 0 13 -5 16 -11z m1782 -775 c-3 -3 -12 -4 -19 -1
-8 3 -5 6 6 6 11 1 17 -2 13 -5z m-3534 -211 c-13 -2 -33 -2 -45 0 -13 2 -3 4
22 4 25 0 35 -2 23 -4z m1210 -410 c-7 -2 -19 -2 -25 0 -7 3 -2 5 12 5 14 0
19 -2 13 -5z m200 0 c-7 -2 -19 -2 -25 0 -7 3 -2 5 12 5 14 0 19 -2 13 -5z"/>
<path d="M4100 7756 c0 -13 83 -114 121 -146 3 -3 28 -36 56 -75 80 -112 146
-250 178 -375 9 -36 21 -72 25 -80 8 -13 9 -13 15 1 9 23 -51 262 -81 322 -63
124 -151 234 -255 319 -25 21 -49 41 -52 45 -4 3 -7 -2 -7 -11z"/>
<path d="M7450 7093 c0 -67 11 -219 28 -398 14 -142 55 -203 96 -140 30 46 18
263 -26 463 -23 106 -43 142 -78 142 -18 0 -20 -7 -20 -67z"/>
<path d="M6525 7107 c-13 -45 -13 -83 0 -211 23 -219 84 -431 125 -431 22 0
25 180 5 333 -15 112 -48 242 -74 290 -12 23 -51 36 -56 19z"/>
<path d="M7103 6270 c-137 -36 -163 -65 -162 -182 1 -122 40 -174 130 -171 68
2 92 21 123 97 32 80 36 185 9 241 -9 19 -19 35 -22 34 -3 0 -38 -9 -78 -19z
m88 -52 c19 -73 5 -170 -36 -234 -30 -46 -39 -54 -66 -54 -43 0 -94 26 -107
55 -19 41 -25 118 -13 163 14 49 36 66 118 92 86 27 91 26 104 -22z"/>
<path d="M3402 7018 c-33 -65 -56 -221 -68 -460 -7 -135 -2 -158 37 -158 25 0
33 20 53 120 41 215 59 458 36 501 -14 26 -44 24 -58 -3z"/>
<path d="M2187 6669 c-69 -10 -145 -42 -153 -64 -11 -27 1 -27 72 1 61 23 78
25 154 20 47 -3 121 -15 165 -27 126 -33 125 -33 125 -15 0 25 -117 76 -198
87 -77 10 -87 10 -165 -2z"/>
<path d="M2745 6270 c-44 -5 -97 -16 -117 -24 l-38 -16 6 -108 c7 -127 25
-208 59 -266 35 -60 60 -80 144 -115 171 -72 303 -15 398 173 36 70 53 139 53
214 l0 63 -45 20 c-106 47 -314 73 -460 59z m251 -41 c32 -6 94 -20 137 -31
75 -21 77 -22 89 -60 21 -70 -33 -220 -113 -316 -46 -56 -135 -96 -198 -90
-55 6 -148 48 -185 84 -44 45 -78 128 -84 203 -4 65 -3 72 34 139 30 54 45 72
64 75 54 9 199 6 256 -4z"/>
<path d="M3507 5543 c-64 -80 -80 -110 -97 -181 -16 -70 -10 -104 35 -180 41
-71 157 -200 163 -183 2 7 -19 39 -48 72 -69 79 -117 152 -131 198 -20 67 24
173 118 285 18 22 33 43 33 48 0 21 -24 2 -73 -59z"/>
<path d="M3596 5532 c-3 -4 4 -9 15 -9 23 -2 25 3 4 10 -8 4 -16 3 -19 -1z"/>
<path d="M3791 5354 c0 -11 3 -14 6 -6 3 7 2 16 -1 19 -3 4 -6 -2 -5 -13z"/>
<path d="M3451 5264 c0 -11 3 -14 6 -6 3 7 2 16 -1 19 -3 4 -6 -2 -5 -13z"/>
<path d="M3768 5227 c-3 -19 -2 -25 4 -19 6 6 8 18 6 28 -3 14 -5 12 -10 -9z"/>
<path d="M3496 5178 c10 -14 21 -24 23 -22 3 3 -6 15 -18 27 l-24 22 19 -27z"/>
<path d="M2675 5509 c-4 -6 -5 -12 -2 -15 2 -3 7 2 10 11 7 17 1 20 -8 4z"/>
<path d="M2531 5484 c0 -11 3 -14 6 -6 3 7 2 16 -1 19 -3 4 -6 -2 -5 -13z"/>
<path d="M2436 5305 c-9 -26 -7 -32 5 -12 6 10 9 21 6 23 -2 3 -7 -2 -11 -11z"/>
<path d="M2758 5293 c7 -3 16 -2 19 1 4 3 -2 6 -13 5 -11 0 -14 -3 -6 -6z"/>
<path d="M2721 5234 c0 -11 3 -14 6 -6 3 7 2 16 -1 19 -3 4 -6 -2 -5 -13z"/>
<path d="M2370 5139 c0 -5 5 -7 10 -4 6 3 10 8 10 11 0 2 -4 4 -10 4 -5 0 -10
-5 -10 -11z"/>
<path d="M2822 4990 c0 -14 2 -19 5 -12 2 6 2 18 0 25 -3 6 -5 1 -5 -13z"/>
<path d="M2750 4744 c0 -20 -3 -25 -9 -16 -6 11 -10 10 -15 -4 -3 -9 -4 -19
-1 -22 3 -3 5 1 6 9 0 8 4 6 9 -6 6 -17 9 -14 15 18 4 21 5 41 1 44 -3 4 -6
-7 -6 -23z"/>
<path d="M2271 4734 c0 -11 3 -14 6 -6 3 7 2 16 -1 19 -3 4 -6 -2 -5 -13z"/>
<path d="M2291 4734 c0 -11 3 -14 6 -6 3 7 2 16 -1 19 -3 4 -6 -2 -5 -13z"/>
<path d="M3068 5353 c7 -3 16 -2 19 1 4 3 -2 6 -13 5 -11 0 -14 -3 -6 -6z"/>
<path d="M4354 4707 c-9 -24 4 -37 34 -37 41 0 55 13 32 28 -12 7 -20 8 -20 2
0 -5 5 -10 12 -10 6 0 8 -3 5 -7 -4 -3 -18 4 -32 17 -21 20 -25 21 -31 7z"/>
<path d="M5365 4339 c-11 -17 1 -21 15 -4 8 9 8 15 2 15 -6 0 -14 -5 -17 -11z"/>
<path d="M4198 4543 c7 -3 16 -2 19 1 4 3 -2 6 -13 5 -11 0 -14 -3 -6 -6z"/>
<path d="M4180 4465 c-19 -23 14 -55 54 -54 27 2 28 2 6 6 -35 7 -51 23 -45
44 8 23 2 24 -15 4z"/>
<path d="M4336 4384 c-10 -26 24 -57 55 -50 14 2 38 -2 53 -10 32 -16 36 -17
36 -6 0 4 -23 18 -51 32 -28 13 -55 30 -61 37 -14 17 -25 16 -32 -3z m58 -36
c-5 -8 -44 13 -44 23 0 4 11 2 24 -4 13 -7 22 -15 20 -19z"/>
<path d="M4278 4303 c7 -3 16 -2 19 1 4 3 -2 6 -13 5 -11 0 -14 -3 -6 -6z"/>
<path d="M4675 4280 c-7 -12 2 -12 30 0 19 8 19 9 -2 9 -12 1 -25 -3 -28 -9z"/>
<path d="M4708 4263 c6 -2 18 -2 25 0 6 3 1 5 -13 5 -14 0 -19 -2 -12 -5z"/>
<path d="M2667 3609 c7 -7 15 -10 18 -7 3 3 -2 9 -12 12 -14 6 -15 5 -6 -5z"/>
<path d="M5424 4218 c-10 -15 0 -18 32 -9 l29 8 -28 5 c-15 3 -30 1 -33 -4z"/>
<path d="M4988 4193 c6 -2 18 -2 25 0 6 3 1 5 -13 5 -14 0 -19 -2 -12 -5z"/>
<path d="M3081 2524 c0 -11 3 -14 6 -6 3 7 2 16 -1 19 -3 4 -6 -2 -5 -13z"/>
</g>
</svg>
