<?xml version="1.0" standalone="no"?>
<!DOCTYPE svg PUBLIC "-//W3C//DTD SVG 20010904//EN"
 "http://www.w3.org/TR/2001/REC-SVG-20010904/DTD/svg10.dtd">
<svg version="1.0" xmlns="http://www.w3.org/2000/svg"
 width="500.000000pt" height="500.000000pt" viewBox="0 0 500.000000 500.000000"
 preserveAspectRatio="xMidYMid meet">

<g transform="translate(0.000000,500.000000) scale(0.100000,-0.100000)"
fill="#000000" stroke="none">
<path d="M2445 4810 c-168 -18 -276 -64 -495 -211 -194 -130 -257 -196 -337
-354 -88 -175 -105 -231 -107 -345 0 -52 3 -116 7 -142 7 -42 6 -48 -9 -48 -9
0 -36 -11 -60 -25 -33 -20 -50 -40 -75 -91 -31 -63 -32 -68 -21 -120 23 -110
79 -153 212 -161 l90 -6 0 -41 c0 -76 68 -147 172 -182 65 -21 174 -14 238 15
54 25 100 26 140 6 17 -9 30 -17 30 -19 0 -2 -24 -16 -52 -31 -77 -40 -150
-92 -263 -185 -54 -45 -117 -94 -138 -108 -32 -22 -37 -29 -32 -51 6 -22 -7
-38 -104 -132 -109 -105 -111 -108 -111 -153 0 -102 53 -229 141 -337 80 -99
79 -98 27 -176 -89 -133 -420 -453 -506 -490 -46 -19 -39 -39 38 -104 46 -40
76 -75 103 -125 22 -41 58 -88 90 -116 l52 -46 -24 -25 c-12 -14 -20 -31 -16
-37 4 -6 39 -26 78 -44 54 -25 82 -46 112 -83 21 -27 55 -62 75 -77 31 -25 41
-27 90 -23 30 3 63 8 73 12 15 7 17 -2 17 -96 0 -163 21 -412 37 -430 7 -8 13
-21 13 -27 0 -24 24 -60 47 -71 13 -6 57 -11 97 -11 70 0 74 1 114 38 35 32
42 45 42 75 0 20 13 78 29 129 47 148 79 278 87 346 5 49 12 66 28 78 30 19
166 32 234 22 32 -4 74 -10 96 -12 21 -3 40 -6 41 -8 12 -12 143 -508 166
-628 16 -83 120 -150 209 -135 41 7 139 65 153 91 12 21 10 319 -3 416 -5 40
-10 103 -10 139 l0 66 48 7 c76 10 106 35 152 126 29 58 52 88 82 110 22 17
47 30 55 30 18 0 17 16 -7 83 -11 32 -34 115 -50 185 -16 70 -50 199 -75 287
-25 88 -56 207 -70 265 -86 357 -111 454 -136 527 -16 45 -29 85 -29 88 0 4
10 4 23 1 112 -32 243 -24 305 17 63 42 316 379 367 488 59 128 32 245 -52
224 -34 -8 -131 -102 -204 -195 -134 -172 -167 -195 -258 -178 -30 5 -75 21
-100 34 -25 14 -79 43 -120 65 -41 21 -97 57 -125 79 -55 43 -141 119 -116
103 55 -37 208 -60 340 -52 79 5 105 11 155 36 69 36 95 72 95 133 l0 41 44
-6 c33 -5 55 -2 92 15 90 39 124 89 124 183 0 70 -40 136 -111 179 -47 30 -50
34 -44 63 31 150 33 288 6 405 -54 224 -105 310 -263 443 -271 229 -589 325
-943 287z m60 -51 c-62 -4 -130 -16 -180 -32 -44 -14 -92 -28 -106 -31 -26 -6
-248 -143 -329 -203 -92 -69 -146 -131 -202 -235 -70 -130 -96 -189 -113 -258
-7 -30 -14 -46 -14 -35 -2 42 29 129 83 235 98 194 139 239 346 374 180 118
193 125 252 141 29 8 80 22 113 31 63 18 223 34 240 24 6 -3 -35 -8 -90 -11z
m155 11 c0 -5 -10 -10 -22 -9 -22 0 -22 1 -3 9 11 5 21 9 23 9 1 1 2 -3 2 -9z
m228 -36 c167 -44 352 -146 494 -270 111 -98 162 -175 194 -297 22 -84 15 -89
-10 -7 -49 166 -137 270 -346 412 -30 21 -59 38 -64 38 -5 0 -17 6 -25 13 -14
11 -85 45 -166 78 -24 10 -217 56 -260 62 -16 3 -4 3 28 1 33 -2 102 -16 155
-30z m-846 -573 c-10 -6 -11 -22 -6 -58 7 -59 -11 -128 -59 -212 -45 -80 -122
-168 -169 -192 -60 -31 -118 -50 -118 -39 0 6 7 10 16 10 35 0 154 73 175 106
11 19 24 34 28 34 12 0 78 115 101 178 17 45 20 69 16 113 -7 55 -3 69 18 69
6 0 5 -4 -2 -9z m73 -47 c41 -64 165 -167 248 -209 38 -19 64 -35 57 -35 -30
0 -153 76 -217 135 -68 62 -156 169 -130 159 7 -2 26 -25 42 -50z m1482 -56
c-3 -8 -6 -5 -6 6 -1 11 2 17 5 13 3 -3 4 -12 1 -19z m-693 -36 c46 -73 108
-117 226 -158 36 -12 58 -23 50 -23 -19 -1 -115 32 -156 53 -33 17 -105 85
-140 131 -12 17 -25 25 -32 21 -19 -11 -14 -51 9 -80 11 -15 19 -32 16 -39 -6
-16 -133 -80 -149 -75 -6 2 11 12 38 23 27 10 61 27 76 38 l27 20 -19 28 c-22
30 -27 85 -7 92 27 11 38 6 61 -31z m703 -19 c-3 -10 -5 -4 -5 12 0 17 2 24 5
18 2 -7 2 -21 0 -30z m-1392 -79 c73 -58 129 -88 225 -119 72 -24 101 -28 189
-27 57 1 108 6 115 10 6 5 27 15 46 21 20 6 59 27 88 46 l53 34 52 -33 c60
-38 153 -70 252 -87 38 -7 74 -18 80 -25 5 -8 23 -15 38 -16 41 -4 50 -19 37
-67 -12 -45 -63 -111 -86 -111 -16 0 -18 28 -5 49 11 18 3 41 -14 41 -13 0
-54 -77 -70 -130 -13 -42 -147 -230 -210 -294 -50 -51 -70 -64 -120 -78 -101
-29 -194 -39 -376 -41 l-174 -2 -75 37 c-41 21 -100 60 -130 87 -52 46 -190
236 -190 261 0 7 -13 42 -30 80 -37 84 -37 110 -4 141 63 58 163 225 179 298
l7 33 37 -34 c20 -19 59 -52 86 -74z m1402 -41 c-2 -21 -4 -6 -4 32 0 39 2 55
4 38 2 -18 2 -50 0 -70z m-2060 -50 c-2 -21 -4 -4 -4 37 0 41 2 58 4 38 2 -21
2 -55 0 -75z m948 21 l50 -14 -44 5 c-24 3 -51 10 -60 15 -23 13 -4 11 54 -6z
m195 -14 c-20 -13 -60 -13 -60 0 0 6 17 10 38 10 27 0 33 -3 22 -10z m768 -2
c18 -18 14 -56 -8 -68 -16 -9 -18 -15 -10 -36 6 -14 10 -33 10 -42 -1 -9 -8 3
-16 27 -16 43 -15 45 8 62 19 15 21 21 12 36 -7 10 -20 16 -30 14 -11 -2 -50
-5 -89 -6 l-70 -3 67 7 c36 3 70 9 74 14 11 11 39 8 52 -5z m-850 -5 c-10 -2
-26 -2 -35 0 -10 3 -2 5 17 5 19 0 27 -2 18 -5z m625 0 c-7 -2 -21 -2 -30 0
-10 3 -4 5 12 5 17 0 24 -2 18 -5z m373 -12 c-3 -5 -8 -26 -11 -47 -6 -48 -33
-144 -34 -124 -1 8 3 31 8 50 5 19 12 56 16 83 3 26 11 47 16 47 6 0 8 -4 5
-9z m-2046 -51 c0 -11 -2 -20 -4 -20 -2 0 -6 9 -9 20 -3 11 -1 20 4 20 5 0 9
-9 9 -20z m14 -65 c9 -47 2 -55 -48 -55 -52 0 -88 -25 -116 -81 -34 -67 -21
-133 36 -178 28 -22 25 -28 -6 -11 -32 17 -60 74 -60 122 0 32 8 57 30 91 32
51 60 67 116 67 40 0 49 15 35 53 -6 15 -7 27 -2 27 5 0 12 -16 15 -35z m96
-49 c0 -2 -7 -6 -15 -10 -8 -3 -15 -1 -15 4 0 6 7 10 15 10 8 0 15 -2 15 -4z
m1751 -63 c-11 -21 -29 -48 -39 -59 -20 -24 -73 -54 -94 -54 -8 0 -22 -15 -33
-32 -42 -73 -169 -239 -233 -307 -12 -12 -10 -16 10 -27 12 -7 34 -14 48 -14
14 -1 19 -4 12 -7 -14 -5 -102 18 -102 27 0 3 15 21 33 40 45 48 123 150 190
246 47 68 63 83 96 93 46 13 105 81 117 134 5 20 9 26 11 15 2 -9 -5 -34 -16
-55z m-1604 -8 c12 -53 -2 -60 -42 -20 -38 37 -31 58 21 64 6 0 15 -19 21 -44z
m1747 33 c-4 -6 2 -18 12 -25 19 -14 19 -15 -1 -11 -21 3 -35 48 -15 48 6 0 8
-5 4 -12z m-1864 -40 c0 -16 65 -80 94 -93 17 -7 24 -14 15 -14 -24 -1 -81 40
-107 79 -13 19 -32 38 -43 42 -10 4 -19 12 -19 17 0 6 13 2 30 -7 16 -9 30
-20 30 -24z m1971 -21 c37 -25 68 -78 68 -117 0 -17 -5 -11 -14 20 -16 51 -54
92 -100 108 -23 8 -25 11 -9 11 12 1 36 -9 55 -22z m-1743 -180 c30 -49 81
-117 114 -152 32 -35 55 -65 51 -68 -20 -10 -103 -29 -114 -25 -7 2 13 10 45
17 l56 13 -46 51 c-25 28 -75 95 -110 148 -35 54 -72 100 -81 103 -11 3 -9 4
6 3 19 -2 36 -22 79 -90z m1782 -27 c-12 -17 -39 -39 -60 -50 -48 -24 -132
-27 -150 -5 -31 37 -60 5 -38 -42 39 -79 -26 -151 -156 -171 -31 -5 -56 -5
-56 0 0 4 15 8 33 8 54 0 125 29 153 63 21 25 25 37 19 66 -14 82 -12 96 16
99 14 2 31 -4 39 -12 8 -11 29 -16 59 -16 56 1 118 39 141 87 9 18 16 25 18
17 2 -8 -6 -28 -18 -44z m-1997 15 c-2 -16 -5 -51 -9 -78 -9 -70 23 -110 114
-143 20 -7 29 -13 19 -14 -25 0 -102 38 -124 62 -20 22 -25 110 -9 160 11 38
-16 49 -48 19 -31 -29 -41 -26 -14 4 15 18 31 25 48 23 21 -3 25 -8 23 -33z
m-200 -2 c-7 -2 -19 -2 -25 0 -7 3 -2 5 12 5 14 0 19 -2 13 -5z m85 -10 c-10
-2 -26 -2 -35 0 -10 3 -2 5 17 5 19 0 27 -2 18 -5z m325 -230 c-13 -2 -33 -2
-45 0 -13 2 -3 4 22 4 25 0 35 -2 23 -4z m1967 -47 c0 -53 -79 -197 -190 -346
-112 -149 -170 -214 -214 -237 -50 -26 -155 -19 -277 19 l-66 20 13 46 c29
110 66 213 78 218 7 3 40 -7 72 -22 46 -20 76 -26 136 -28 l77 -1 62 60 c33
33 90 98 127 145 116 150 182 196 182 126z m-656 6 c5 -8 -94 -5 -103 3 -2 3
19 5 47 5 28 0 53 -3 56 -8z m-869 -37 c60 -10 75 -16 75 -25 0 -15 -120 -156
-128 -150 -10 8 -82 154 -82 167 0 23 37 25 135 8z m441 -10 c-11 -43 -74
-175 -84 -175 -6 0 -17 19 -27 43 -9 23 -33 61 -52 85 -19 24 -33 46 -30 49 3
2 39 8 79 13 125 13 121 13 114 -15z m130 -33 c29 -20 85 -60 125 -89 41 -29
82 -58 92 -65 18 -13 17 -19 -21 -133 -22 -66 -43 -135 -47 -152 -10 -49 -23
-49 -35 -1 -6 24 -18 63 -28 88 -14 36 -22 45 -42 45 -31 0 -32 7 24 -184 67
-225 86 -328 111 -586 7 -77 14 -144 15 -150 1 -5 2 -24 1 -41 -1 -31 -4 -32
-123 -77 -247 -91 -395 -128 -546 -134 -143 -7 -205 5 -354 69 -157 67 -156
66 -130 170 27 109 58 427 59 618 0 25 6 103 12 174 8 96 8 132 0 143 -8 9
-15 10 -24 3 -15 -12 -40 -160 -32 -189 3 -11 -1 -28 -7 -37 -11 -14 -18 -8
-56 52 -24 38 -63 95 -86 127 -24 31 -44 61 -44 66 0 5 16 19 35 31 19 12 79
62 132 111 97 89 176 149 197 149 14 0 56 -69 80 -130 10 -25 26 -54 36 -65 9
-11 25 -45 35 -75 18 -56 65 -169 112 -272 29 -62 75 -114 92 -103 21 12 101
144 149 243 26 54 83 173 127 265 44 92 82 167 85 167 3 0 28 -17 56 -38z
m-376 3 c21 -22 22 -31 17 -92 -7 -83 -14 -103 -36 -103 -11 0 -29 24 -51 70
l-33 69 28 41 c32 47 43 49 75 15z m-117 -147 c33 -58 38 -87 21 -123 -11 -23
-12 -24 -7 -5 11 40 5 79 -18 116 -23 38 -32 36 -60 -10 -10 -17 -19 -26 -19
-21 0 11 48 85 55 85 2 0 15 -19 28 -42z m215 -5 c20 -54 22 -65 16 -89 -10
-40 -19 -27 -19 26 0 61 -18 70 -26 13 -3 -24 -9 -46 -13 -50 -5 -5 -6 6 -3
22 4 17 9 47 13 68 7 44 18 47 32 10z m-221 -182 c8 21 11 24 8 9 -2 -14 -5
-33 -5 -43 0 -38 -24 -9 -51 63 -15 41 -28 82 -28 90 0 8 14 -23 32 -69 l31
-84 13 34z m116 32 c20 -162 20 -165 -10 -210 -15 -24 -31 -43 -35 -43 -4 0
-16 16 -26 36 -17 33 -17 40 -4 97 18 77 52 167 62 167 4 0 10 -21 13 -47z
m85 1 c7 16 15 26 18 24 8 -9 -28 -78 -38 -72 -4 3 -7 24 -7 47 l2 42 6 -35 6
-34 13 28z m-803 -117 c21 -34 46 -72 54 -85 13 -22 11 -26 -58 -91 -39 -38
-71 -74 -71 -80 0 -21 71 -203 117 -301 40 -86 44 -98 34 -130 -20 -66 -120
-96 -133 -41 -2 10 6 15 22 15 22 1 25 5 22 31 -5 44 -46 119 -105 189 -71 83
-91 118 -121 208 -28 84 -32 122 -13 154 13 23 194 194 205 194 4 0 25 -28 47
-63z m1300 -120 c1 -7 18 -47 38 -89 30 -61 74 -205 102 -328 18 -79 29 -125
60 -250 20 -80 40 -158 45 -175 18 -61 102 -381 106 -405 3 -14 11 -51 19 -83
8 -32 15 -66 15 -75 0 -9 -23 -39 -50 -65 -27 -27 -58 -70 -70 -95 -41 -92
-45 -96 -90 -113 -25 -9 -50 -15 -56 -12 -14 5 -30 144 -49 413 -8 113 -22
258 -31 323 -16 111 -16 118 0 136 15 16 17 34 13 113 -11 217 -37 417 -73
566 -25 103 -25 112 -10 127 9 9 16 21 16 27 0 15 15 0 15 -15z m-1240 -159
c-12 -45 -26 -83 -32 -85 -6 -2 -19 20 -28 48 l-18 53 36 33 c60 54 67 46 42
-49z m81 -110 c-4 -101 -11 -187 -16 -191 -11 -12 -62 104 -57 128 3 11 8 31
11 45 10 43 61 200 65 200 2 0 1 -82 -3 -182z m-168 -415 c31 -4 52 -1 77 13
19 10 38 15 42 11 4 -4 -1 -39 -11 -78 -14 -54 -15 -73 -6 -84 9 -11 9 -48 1
-157 -6 -79 -16 -258 -21 -398 -6 -141 -13 -265 -16 -277 -5 -17 -16 -21 -61
-26 -76 -8 -111 9 -165 79 -29 38 -62 67 -92 82 -25 13 -48 27 -51 32 -3 5 11
33 33 62 21 29 65 98 96 153 32 55 74 123 92 151 46 71 56 101 43 125 -15 29
-31 19 -57 -37 -13 -27 -40 -76 -61 -109 -21 -33 -55 -89 -76 -125 -59 -101
-79 -130 -91 -130 -20 0 -102 96 -126 147 -12 26 -49 74 -82 106 -36 34 -56
61 -50 66 5 5 55 45 110 89 56 45 164 146 240 225 l139 145 25 -30 c18 -21 37
-31 68 -35z m1302 -228 c7 -36 10 -68 8 -70 -2 -3 -10 25 -17 61 -11 53 -16
64 -30 59 -52 -21 -191 -68 -216 -74 -17 -5 -42 -13 -55 -20 -24 -12 -24 -11
-5 4 11 9 31 18 45 21 14 4 72 23 130 44 58 22 110 39 116 39 7 1 17 -28 24
-64z m-1019 -11 c139 -62 185 -74 309 -83 l105 -8 -78 -1 c-104 -2 -197 20
-330 79 -60 27 -112 48 -113 46 -2 -2 -8 -41 -13 -88 -4 -46 -9 -66 -10 -44
-1 55 10 145 19 145 4 0 54 -21 111 -46z m676 -40 c-3 -3 -12 -4 -19 -1 -8 3
-5 6 6 6 11 1 17 -2 13 -5z m-67 -14 c-115 -26 -179 -37 -174 -29 3 5 17 9 32
10 15 0 47 6 72 13 25 8 59 13 75 14 29 0 29 -1 -5 -8z m430 -55 c0 -19 -2
-35 -4 -35 -2 0 -6 16 -8 35 -2 19 0 35 4 35 4 0 8 -16 8 -35z m-1163 -82 c-3
-10 -5 -2 -5 17 0 19 2 27 5 18 2 -10 2 -26 0 -35z m1172 -58 c-1 -73 -6 -62
-11 23 -3 34 -1 57 4 50 4 -7 7 -40 7 -73z m-1179 -75 l-6 -95 -2 105 c-1 57
2 100 6 95 4 -6 5 -53 2 -105z m1194 -121 c4 -72 5 -133 2 -137 -3 -3 -6 15
-7 39 0 24 -4 86 -7 137 -4 50 -4 92 -1 92 3 0 9 -59 13 -131z m-1202 -79
l-10 -55 -1 46 c0 26 2 62 6 80 7 30 8 31 11 9 1 -14 -1 -50 -6 -80z m773 -34
c24 -16 43 -61 31 -73 -3 -4 -6 3 -6 14 0 11 -11 30 -25 43 -24 23 -32 24
-143 23 -126 -1 -165 -11 -221 -59 -42 -35 -51 -54 -66 -143 -7 -42 -13 -65
-14 -52 -2 57 22 153 46 182 30 36 89 67 146 78 69 14 224 5 252 -13z m-778
-48 c-3 -8 -6 -5 -6 6 -1 11 2 17 5 13 3 -3 4 -12 1 -19z m733 -3 c14 -9 33
-76 24 -85 -5 -4 -40 -4 -79 1 -38 6 -112 7 -162 3 -81 -6 -93 -4 -93 9 0 29
66 69 128 77 59 7 167 4 182 -5z m493 -80 c4 -54 3 -67 -2 -40 -13 64 -19 138
-11 128 4 -4 10 -44 13 -88z m-1236 3 c-2 -13 -4 -3 -4 22 0 25 2 35 4 23 2
-13 2 -33 0 -45z m902 -198 c-1 -8 -18 39 -40 105 -21 66 -38 125 -38 130 1
15 78 -217 78 -235z m-907 38 c-5 -150 -8 -165 -10 -40 -1 67 1 122 6 122 4 0
6 -37 4 -82z m1263 -22 c4 -46 5 -90 3 -97 -2 -6 -8 31 -13 85 -6 53 -7 96 -3
96 3 0 9 -38 13 -84z m-940 -104 c-26 -114 -65 -235 -73 -227 -3 2 3 22 11 43
16 39 60 212 73 287 4 22 9 34 12 27 2 -8 -8 -66 -23 -130z m656 -177 c22 -88
46 -165 52 -172 7 -7 39 -19 72 -28 118 -30 180 -12 173 51 -2 19 0 34 4 34 4
0 8 -18 8 -40 0 -34 -4 -42 -30 -55 -37 -19 -74 -19 -161 1 -42 9 -73 22 -78
32 -10 18 -112 407 -110 420 2 13 29 -81 70 -243z m301 96 c2 -22 0 -37 -3
-35 -9 5 -17 74 -8 74 4 0 9 -18 11 -39z m-1275 -78 c-2 -16 -4 -3 -4 27 0 30
2 43 4 28 2 -16 2 -40 0 -55z m1270 -15 c-3 -7 -5 -2 -5 12 0 14 2 19 5 13 2
-7 2 -19 0 -25z m-1197 -97 c35 -14 71 -22 89 -19 17 3 31 0 31 -5 0 -16 -91
-2 -142 22 -44 19 -48 24 -46 54 l1 32 4 -30 c3 -27 11 -34 63 -54z m1207 29
c2 -22 -1 -40 -6 -40 -6 0 -9 67 -2 78 4 7 6 -2 8 -38z m-1042 -29 c-3 -12
-14 -21 -23 -21 -16 1 -15 2 1 11 9 5 17 17 17 26 0 9 3 14 6 10 3 -3 3 -15
-1 -26z"/>
<path d="M2117 3804 c-3 -4 -30 -8 -59 -9 -39 -2 -54 -7 -56 -18 -2 -10 6 -19
22 -23 14 -3 26 -10 26 -16 0 -5 -9 -6 -20 -3 -29 9 -62 -4 -58 -23 2 -9 14
-19 27 -22 21 -5 26 -15 36 -64 13 -65 37 -91 94 -102 71 -14 125 45 126 134
0 57 0 57 -29 55 -17 -1 -36 3 -43 9 -18 15 -16 45 5 57 15 9 15 12 2 21 -17
11 -63 13 -73 4z m0 -242 c-11 -5 -37 18 -37 34 0 9 8 5 23 -9 12 -12 18 -24
14 -25z"/>
<path d="M3040 3770 c-8 -5 -34 -6 -57 -3 -36 5 -50 1 -84 -21 -113 -76 -81
-264 46 -266 66 0 135 77 135 152 0 28 5 35 31 45 17 7 29 18 27 24 -7 22 -25
20 -57 -6 -17 -15 -39 -25 -48 -23 -22 4 -24 48 -3 58 43 20 55 28 53 36 -3
13 -26 15 -43 4z m-163 -142 c-3 -8 -6 -5 -6 6 -1 11 2 17 5 13 3 -3 4 -12 1
-19z m66 -99 c21 -2 21 -2 -1 -6 -26 -5 -62 21 -62 45 0 9 8 5 21 -12 11 -14
30 -27 42 -27z"/>
<path d="M2520 3410 c-36 -3 -71 -9 -77 -13 -23 -14 -14 -64 20 -113 84 -123
195 -100 242 50 28 88 17 93 -185 76z m130 -52 c0 -9 -25 -14 -85 -15 -78 -2
-96 3 -78 20 3 4 42 7 85 7 56 0 78 -4 78 -12z m-10 -37 c0 -16 -40 -60 -61
-66 -15 -5 -29 1 -50 21 -46 44 -39 54 41 54 39 0 70 -4 70 -9z"/>
<path d="M2188 2715 c-34 -19 -66 -71 -73 -120 -15 -103 115 -167 183 -90 41
48 24 171 -29 209 -28 19 -46 20 -81 1z m56 -67 c22 -31 20 -84 -4 -108 -27
-27 -43 -25 -63 9 -21 36 -22 65 -1 96 20 31 48 32 68 3z"/>
</g>
</svg>
