<?xml version="1.0" standalone="no"?>
<!DOCTYPE svg PUBLIC "-//W3C//DTD SVG 20010904//EN"
 "http://www.w3.org/TR/2001/REC-SVG-20010904/DTD/svg10.dtd">
<svg version="1.0" xmlns="http://www.w3.org/2000/svg"
 width="500.000000pt" height="500.000000pt" viewBox="0 0 500.000000 500.000000"
 preserveAspectRatio="xMidYMid meet">

<g transform="translate(0.000000,500.000000) scale(0.100000,-0.100000)"
fill="#000000" stroke="none">
<path d="M2335 4798 c-20 -65 -51 -111 -86 -132 -15 -9 -30 -16 -33 -16 -3 0
-6 26 -8 58 -3 53 -5 57 -28 60 -20 2 -28 -5 -43 -38 -14 -29 -44 -59 -110
-109 -51 -38 -101 -78 -111 -90 -28 -31 -46 -27 -46 12 0 48 -21 82 -50 82
-22 0 -25 -4 -22 -31 4 -39 -91 -235 -146 -303 -87 -105 -105 -155 -117 -321
-6 -78 -5 -89 19 -134 l25 -49 -30 -28 c-37 -35 -37 -64 1 -138 35 -70 65 -94
149 -117 51 -15 65 -23 78 -48 29 -56 104 -147 145 -174 22 -15 77 -41 121
-57 44 -17 82 -35 84 -41 5 -16 -96 -60 -111 -49 -7 6 -33 25 -59 44 -37 27
-45 39 -41 56 4 17 -5 31 -43 64 -55 47 -97 55 -107 19 -6 -21 -16 -13 -109
83 -56 58 -115 129 -132 157 -51 88 -79 79 -139 -41 -29 -57 -33 -74 -25 -91
6 -11 71 -80 145 -152 74 -72 134 -136 134 -142 0 -6 -9 -16 -20 -22 -28 -15
-25 -24 23 -69 48 -46 59 -49 94 -21 29 22 53 13 53 -21 0 -10 9 -23 20 -29
11 -6 20 -15 20 -21 0 -5 -68 -80 -151 -167 -194 -202 -239 -259 -239 -306 0
-61 21 -139 56 -209 31 -62 33 -69 19 -90 -52 -79 -431 -337 -494 -337 -36 0
-52 -24 -30 -45 8 -7 50 -25 93 -40 66 -22 93 -26 155 -23 94 4 153 30 308
135 110 73 112 75 147 63 45 -15 70 -7 97 31 11 16 24 27 29 24 13 -8 1 -33
-20 -40 -13 -4 -16 -14 -14 -43 2 -26 -3 -42 -17 -55 -37 -35 -7 -145 46 -169
20 -9 24 -20 29 -72 40 -453 50 -536 93 -751 47 -238 87 -407 122 -510 11 -33
23 -80 26 -105 8 -52 20 -70 47 -70 12 0 29 -17 46 -44 34 -55 56 -66 138 -66
58 0 68 3 90 27 13 14 27 37 30 50 7 28 0 164 -15 260 -13 92 -36 547 -33 673
1 52 7 117 13 143 10 41 17 51 50 67 76 39 92 25 153 -135 53 -138 81 -242
125 -460 53 -267 59 -303 66 -420 7 -104 12 -118 54 -139 36 -19 206 -15 225
5 21 22 45 133 52 244 3 55 19 177 35 270 37 213 51 427 48 712 -2 122 0 225
4 229 13 13 7 43 -9 52 -26 14 -31 104 -9 152 17 37 17 69 0 111 -5 12 2 18
26 23 40 8 96 -27 217 -134 l81 -71 86 -10 c73 -9 91 -8 120 5 18 9 37 16 43
16 5 0 15 7 22 15 16 20 -22 59 -179 179 -98 75 -281 239 -281 251 0 1 16 36
35 78 50 109 95 234 95 266 0 32 -73 125 -270 343 -152 169 -156 174 -140 192
14 18 -12 46 -43 46 -12 0 -29 5 -37 10 -16 10 -20 7 87 83 29 20 57 37 61 37
4 0 13 -9 20 -20 20 -32 55 -24 103 22 l42 41 -36 31 c-20 17 -37 34 -37 38 0
4 60 67 133 140 128 128 217 240 217 272 0 9 -12 23 -27 33 -16 9 -38 27 -51
40 -27 27 -49 30 -56 6 -14 -43 -110 -150 -213 -238 -62 -52 -117 -95 -122
-95 -14 0 -37 43 -33 63 2 9 13 17 24 17 54 0 148 100 169 180 14 56 1 94 -41
118 -16 9 -30 21 -30 26 0 4 17 29 39 55 75 91 87 192 42 356 -11 39 -17 82
-14 97 8 39 -23 50 -50 17 -11 -13 -22 -19 -24 -14 -2 6 -30 66 -62 135 -64
139 -83 154 -106 87 -18 -53 -22 -54 -38 -16 -8 19 -32 50 -54 69 -82 71 -161
130 -176 130 -8 0 -17 -13 -20 -30 -9 -44 -38 -38 -76 15 -18 25 -36 45 -40
45 -4 0 -17 -13 -29 -30 -26 -35 -47 -38 -62 -10 -17 31 -43 24 -68 -20 -28
-49 -42 -51 -42 -6 0 32 -20 66 -40 66 -4 0 -15 -24 -25 -52z m668 -755 l69
-6 -6 -29 c-4 -21 -2 -28 10 -28 13 0 15 -7 11 -32 -8 -48 -35 -150 -68 -256
-16 -52 -27 -98 -24 -102 3 -4 -17 -2 -43 5 -305 82 -733 43 -1083 -100 -13
-5 -24 12 -54 82 -20 48 -47 108 -60 133 -49 97 -87 191 -82 204 20 50 309 68
457 28 41 -11 119 -32 172 -46 l98 -26 43 33 c71 54 176 93 327 121 47 8 94
17 105 20 33 6 56 6 128 -1z m181 -199 c51 -20 -25 -172 -107 -216 -17 -9 -19
-8 -13 8 4 11 19 57 34 104 34 111 42 121 86 104z m276 -104 c0 -5 8 -10 17
-10 14 0 13 -4 -6 -21 -12 -12 -20 -28 -17 -36 4 -9 -4 -18 -24 -24 -18 -7
-30 -19 -32 -32 -2 -12 -13 -26 -25 -32 -12 -5 -25 -22 -28 -37 -4 -16 -13
-28 -22 -28 -9 0 -22 -8 -29 -17 -13 -17 -13 -17 -14 0 0 23 -16 22 -23 -3 -3
-11 0 -20 6 -20 19 -1 -25 -30 -44 -30 -10 0 -19 -9 -21 -20 -2 -12 -7 -20
-13 -20 -5 1 -9 8 -7 16 2 8 -5 14 -16 14 -10 0 -27 7 -38 15 -18 13 -17 14
16 15 32 0 37 4 45 33 7 22 17 33 33 35 12 2 22 10 22 18 0 8 5 14 10 14 6 0
10 -7 10 -15 0 -19 16 -20 23 -1 3 8 -2 17 -11 21 -14 5 -12 8 8 19 17 8 27 9
32 2 8 -12 9 -11 28 29 l14 30 4 -27 c2 -16 8 -28 14 -28 6 0 8 12 5 27 -3 15
-1 38 5 52 9 24 10 25 22 9 17 -23 26 -23 26 1 0 11 -8 22 -17 24 -15 4 -15 6
5 12 12 4 22 11 22 16 0 5 5 9 10 9 6 0 10 -4 10 -10z m-1754 -104 c30 -49 52
-91 50 -94 -3 -2 -28 1 -55 8 -73 17 -132 96 -117 155 6 22 12 26 38 23 27 -3
37 -14 84 -92z m1054 -66 c61 -8 196 -37 208 -45 17 -12 -94 -159 -164 -217
-64 -53 -189 -98 -297 -108 -70 -7 -111 -5 -199 10 -118 21 -268 68 -335 106
-36 21 -103 91 -103 108 0 9 52 34 127 61 220 79 534 114 763 85z m-1290 -56
c0 -30 14 -31 27 -1 10 19 12 16 18 -30 5 -35 12 -53 21 -53 17 0 19 -17 3
-22 -16 -5 -1 -48 17 -48 9 0 14 11 15 33 l1 32 13 -35 c7 -19 14 -50 14 -67
1 -22 6 -33 16 -33 10 0 15 11 16 33 l1 32 11 -27 c7 -18 19 -28 31 -29 20 0
20 0 -1 -16 -34 -23 -30 -44 7 -36 36 7 41 -12 6 -21 -17 -4 -26 -14 -28 -34
l-4 -27 -12 28 c-6 15 -17 27 -24 27 -9 0 -9 3 0 12 17 17 15 38 -3 38 -9 0
-15 -9 -16 -22 l0 -23 -11 23 c-6 12 -16 22 -22 22 -6 0 -5 4 3 9 9 6 12 18 7
36 -6 25 -8 26 -24 12 -15 -14 -19 -13 -32 1 -8 9 -13 28 -11 44 2 22 -1 27
-13 22 -8 -3 -17 -15 -19 -27 l-4 -22 -8 23 c-4 12 -11 22 -16 22 -5 0 -6 14
-2 30 4 23 2 30 -11 30 -20 0 -21 16 -1 24 9 3 15 19 15 41 0 22 4 34 10 30 6
-3 10 -17 10 -31z m1510 -132 c0 -12 -39 -46 -45 -41 -6 7 24 49 36 49 5 0 9
-4 9 -8z m71 -78 l24 -26 -50 -45 c-27 -25 -64 -57 -82 -70 l-31 -24 -52 22
-52 22 28 15 c16 8 43 27 59 43 31 28 115 88 126 89 3 0 16 -12 30 -26z
m-1120 -161 c22 -14 38 -31 36 -37 -2 -6 -29 -17 -60 -25 -76 -20 -89 -8 -52
48 15 22 29 41 32 41 2 0 21 -12 44 -27z m479 -25 c0 -15 -18 -44 -22 -38 -2
3 -12 15 -22 28 l-19 22 31 0 c19 0 32 -5 32 -12z m-350 -39 c0 -6 -18 -18
-40 -27 -25 -11 -40 -24 -40 -34 0 -10 4 -18 9 -18 4 0 6 -23 3 -50 -4 -42 -1
-53 14 -65 17 -12 18 -17 5 -47 -20 -49 -40 -168 -51 -303 -12 -146 -15 -168
-34 -270 -22 -119 -29 -189 -21 -223 6 -28 13 -33 81 -53 73 -22 96 -39 50
-39 -13 0 -43 7 -66 15 -57 20 -70 19 -70 -5 0 -28 81 -78 139 -85 67 -9 83
-19 38 -23 -50 -4 -129 23 -166 57 l-29 27 3 124 c2 73 11 171 23 235 12 61
26 169 31 240 12 148 36 294 51 309 16 16 12 23 -16 30 -27 7 -29 21 -9 84 6
19 4 23 -11 20 -15 -2 -18 2 -17 20 2 14 -3 22 -12 22 -30 0 -14 17 28 29 23
7 53 19 67 27 31 16 40 17 40 3z m1046 -195 l118 -126 -22 -17 c-12 -9 -54
-34 -93 -54 l-70 -38 -43 35 c-43 35 -56 64 -56 126 0 22 6 30 31 39 32 11 33
17 14 64 -5 13 -2 17 14 17 28 0 27 27 -1 57 -12 13 -19 23 -16 23 3 0 59 -57
124 -126z m-1206 -6 c19 -20 21 -31 15 -83 -10 -103 -27 -175 -40 -175 -7 0
-25 -18 -40 -40 -39 -57 -121 -115 -157 -112 -42 3 -45 -21 -11 -91 35 -70 97
-236 107 -283 4 -18 17 -37 31 -44 31 -17 32 -29 2 -23 -15 3 -30 -4 -46 -21
-44 -46 -91 -26 -91 39 0 34 -26 94 -54 125 -80 88 -138 271 -104 333 27 52
335 390 360 395 4 1 17 -8 28 -20z m1115 -272 c43 -33 135 -169 135 -199 0
-65 -24 -73 -60 -20 -14 20 -40 52 -57 71 -18 19 -33 41 -33 51 0 9 -7 40 -14
69 -8 28 -12 52 -9 52 4 0 20 -11 38 -24z m369 -58 c13 -20 13 -31 2 -78 -7
-30 -25 -84 -40 -120 -15 -36 -32 -78 -38 -95 -7 -16 -31 -63 -55 -104 -24
-41 -42 -80 -39 -88 8 -19 43 -16 55 5 16 27 34 2 22 -30 -17 -46 -70 -69
-116 -52 -22 9 -55 86 -55 129 0 19 23 91 52 161 49 122 51 129 36 155 -16 27
-16 27 25 45 22 10 61 36 86 56 25 21 47 38 48 38 1 0 9 -10 17 -22z m-425
-76 c5 -20 15 -77 21 -127 6 -49 22 -124 36 -166 26 -81 56 -243 48 -263 -3
-7 -51 -23 -107 -36 -105 -23 -178 -47 -188 -62 -11 -16 -109 -26 -279 -28
-229 -3 -270 -2 -270 9 0 4 102 9 226 10 l226 2 89 34 c49 19 98 35 109 35 12
0 18 4 15 10 -3 5 0 7 9 4 18 -7 137 23 151 38 7 8 0 9 -25 4 -81 -16 -120
-18 -120 -9 0 6 14 13 32 17 18 3 49 11 71 17 39 10 39 10 32 52 -6 41 -37
149 -95 337 -17 52 -30 104 -30 115 1 20 1 20 16 0 14 -18 14 -17 9 19 -8 49
11 40 24 -12z m-1083 7 c-3 -17 -6 -40 -6 -50 0 -11 -4 -19 -9 -19 -5 0 -33
-14 -61 -32 -52 -32 -62 -31 -74 9 -6 19 3 30 61 72 81 60 98 64 89 20z m-20
-181 c-13 -125 -19 -158 -25 -158 -4 0 -13 17 -20 38 -7 20 -20 54 -29 76
l-16 38 37 34 c53 49 61 45 53 -28z m1237 6 c16 -21 16 -27 4 -50 l-14 -26
-21 34 c-12 20 -22 47 -22 62 0 22 2 25 18 15 9 -6 25 -22 35 -35z m-1523
-188 c0 -8 7 -19 15 -26 9 -7 15 -27 14 -44 0 -17 2 -40 5 -51 8 -25 -67 -80
-212 -158 -95 -51 -99 -52 -182 -52 -47 0 -93 5 -103 11 -16 9 -10 16 55 54
89 52 260 175 335 241 53 47 73 53 73 25z m1894 -138 c52 -46 110 -94 130
-108 21 -14 55 -39 77 -57 21 -17 44 -33 51 -35 7 -3 8 -10 3 -17 -9 -16 -130
-7 -174 12 -19 9 -162 118 -240 183 -1 1 9 18 23 37 14 19 26 41 26 50 0 10 3
17 6 17 3 0 47 -37 98 -82z m-1504 -338 c0 -5 -10 -10 -22 -10 -23 0 -23 -1
-20 -117 3 -117 43 -436 83 -668 18 -101 96 -400 141 -538 l12 -39 88 4 c83 3
108 -2 72 -16 -22 -8 -157 -7 -170 2 -6 4 -29 72 -53 152 -23 80 -49 166 -56
192 -48 152 -132 721 -138 926 l-3 122 33 0 c18 0 33 -4 33 -10z m360 -1335
c0 -14 -58 -26 -90 -19 l-35 8 40 6 c54 10 85 11 85 5z"/>
<path d="M2875 3906 c-55 -18 -203 -46 -241 -46 -41 0 -48 -20 -28 -78 33 -99
105 -132 216 -102 98 28 176 170 122 224 -18 18 -17 18 -69 2z"/>
<path d="M1873 3855 c-11 -31 20 -108 61 -151 63 -64 139 -80 207 -42 29 16
42 32 54 66 35 105 19 119 -146 132 -164 13 -169 13 -176 -5z"/>
<path d="M3310 3554 c0 -8 5 -12 10 -9 6 3 10 10 10 16 0 5 -4 9 -10 9 -5 0
-10 -7 -10 -16z"/>
<path d="M3207 3503 c-13 -12 -7 -33 8 -33 8 0 15 9 15 20 0 20 -11 26 -23 13z"/>
<path d="M2558 3445 c-38 -26 -61 -35 -110 -39 -35 -4 -72 -5 -83 -4 -11 2
-21 -4 -23 -13 -7 -37 136 -41 218 -6 42 19 95 71 86 86 -12 19 -39 11 -88
-24z"/>
<path d="M1477 3463 c-4 -3 -7 -17 -7 -30 0 -33 24 -24 28 10 3 26 -7 35 -21
20z"/>
</g>
</svg>
