<?xml version="1.0" standalone="no"?>
<!DOCTYPE svg PUBLIC "-//W3C//DTD SVG 20010904//EN"
 "http://www.w3.org/TR/2001/REC-SVG-20010904/DTD/svg10.dtd">
<svg version="1.0" xmlns="http://www.w3.org/2000/svg"
 width="500.000000pt" height="500.000000pt" viewBox="0 0 500.000000 500.000000"
 preserveAspectRatio="xMidYMid meet">

<g transform="translate(0.000000,500.000000) scale(0.100000,-0.100000)"
fill="#000000" stroke="none">
<path d="M2370 4840 c-91 -9 -187 -33 -300 -73 -77 -28 -188 -81 -200 -96 -15
-20 -110 -81 -124 -81 -9 0 -45 9 -79 21 -121 41 -228 19 -334 -69 -100 -81
-120 -217 -51 -355 22 -44 78 -88 166 -129 42 -20 62 -36 62 -48 0 -10 -9 -69
-19 -132 -31 -180 -19 -255 56 -365 51 -77 83 -107 132 -129 46 -21 60 -5 31
34 -19 26 -22 39 -17 81 9 78 23 93 77 85 58 -8 57 -8 82 -60 32 -68 101 -139
170 -173 34 -17 68 -31 75 -31 24 0 10 -17 -47 -59 -102 -74 -139 -106 -139
-123 -1 -9 -5 -20 -11 -23 -5 -3 -10 -13 -10 -21 0 -47 -239 -300 -380 -402
-47 -34 -98 -71 -114 -84 -35 -27 -92 -60 -164 -94 -69 -33 -85 -58 -71 -107
13 -49 62 -84 135 -98 98 -18 189 11 345 110 35 22 84 53 108 68 24 16 72 50
107 76 40 30 64 42 64 33 0 -24 -38 -236 -65 -367 -14 -68 -30 -162 -34 -209
-4 -47 -11 -93 -15 -102 -6 -13 -1 -21 18 -29 23 -11 26 -18 26 -68 0 -78 18
-260 35 -361 8 -47 26 -152 40 -235 13 -82 31 -172 38 -200 45 -163 71 -250
162 -522 l100 -301 50 -39 c49 -37 52 -38 135 -37 96 0 131 13 175 66 25 29
26 36 20 87 -4 31 -11 64 -16 74 -6 9 -11 47 -13 85 -2 37 -9 96 -15 132 -9
58 -25 370 -22 460 3 125 20 165 82 189 44 16 74 -21 123 -151 13 -35 44 -117
69 -183 66 -176 171 -440 205 -516 56 -124 136 -179 242 -165 169 20 220 48
220 119 -1 29 -56 216 -118 397 -61 178 -157 638 -187 895 -8 72 -20 159 -25
195 -22 141 -22 158 10 190 46 47 47 65 5 112 -21 22 -50 68 -66 102 -31 66
-149 405 -149 427 0 7 17 -3 38 -23 80 -76 241 -165 350 -193 86 -22 194 -21
262 2 53 17 55 20 58 57 3 29 -3 48 -24 78 -32 46 -61 67 -130 95 -105 42
-293 184 -401 303 -60 66 -150 186 -158 211 -4 11 -14 19 -24 19 -9 0 -41 25
-69 55 l-52 55 63 62 c61 61 91 105 171 251 33 60 40 67 68 67 l31 0 -6 -59
c-8 -73 -50 -181 -82 -211 -32 -30 -24 -40 32 -40 76 0 138 52 196 165 51 99
70 301 48 497 -8 72 -2 88 34 88 11 0 41 14 67 30 55 34 111 125 129 209 23
109 -26 236 -130 336 l-42 40 -87 0 c-79 0 -94 -3 -154 -33 l-67 -33 -68 41
c-37 22 -74 40 -83 40 -9 0 -20 4 -26 9 -8 8 -84 31 -219 66 -66 17 -212 24
-305 15z m310 -69 c42 -11 102 -29 135 -41 33 -11 76 -26 95 -31 53 -17 139
-76 192 -133 84 -89 138 -229 153 -400 32 -356 18 -515 -58 -643 -39 -65 -53
-69 -26 -8 15 34 20 67 20 130 0 115 -24 188 -86 266 -44 55 -169 133 -295
184 -212 86 -353 184 -389 272 -14 34 -32 46 -57 36 -11 -4 -13 -13 -9 -33 4
-20 -4 -41 -37 -91 -46 -70 -312 -347 -355 -370 -15 -8 -81 -67 -148 -131
-117 -114 -175 -194 -175 -244 0 -43 -16 -47 -43 -13 -64 87 -77 169 -53 354
52 400 158 616 374 758 71 47 245 116 326 129 34 5 75 13 91 18 60 16 266 11
345 -9z m679 -85 c53 -28 108 -100 130 -171 26 -83 26 -91 0 -167 -29 -86 -72
-145 -125 -170 -24 -12 -46 -19 -49 -16 -4 3 -13 46 -22 95 -19 116 -64 222
-124 294 -27 32 -49 63 -49 68 0 15 58 52 103 67 56 17 102 17 136 0z m-1698
-127 c50 -17 52 -22 23 -60 -14 -18 -38 -59 -54 -89 -15 -30 -35 -68 -44 -85
-9 -16 -16 -38 -16 -48 0 -10 -6 -30 -13 -45 -8 -15 -20 -53 -27 -84 -7 -32
-19 -58 -25 -58 -18 0 -108 51 -144 82 -62 54 -88 158 -57 232 20 48 73 104
130 137 43 24 62 29 122 29 39 0 86 -5 105 -11z m934 -426 c50 -29 137 -70
194 -92 106 -41 209 -101 251 -146 l23 -25 -21 -73 c-37 -125 -141 -315 -209
-379 -60 -56 -96 -66 -256 -72 -157 -6 -379 7 -456 26 -111 27 -179 86 -242
209 -24 46 -41 89 -40 94 2 6 4 17 3 26 0 9 12 29 27 43 37 35 73 28 89 -18
25 -68 98 -102 161 -76 40 16 57 45 66 108 l7 52 -25 -11 c-14 -6 -33 -9 -41
-6 -20 8 -21 45 -1 67 18 20 8 31 -37 46 l-28 9 48 51 c26 28 85 90 130 139
46 48 99 112 118 142 l35 54 57 -58 c34 -35 94 -80 147 -110z m-634 -326 c-16
-16 -26 0 -10 19 9 11 15 12 17 4 2 -6 -1 -17 -7 -23z m1159 -51 c0 -8 -4 -18
-10 -21 -5 -3 -10 3 -10 14 0 12 5 21 10 21 6 0 10 -6 10 -14z m-1326 -128
c-3 -4 -11 -5 -20 -1 -11 4 -12 8 -3 20 10 11 14 11 20 1 4 -6 6 -15 3 -20z
m592 -341 c3 -2 -14 -7 -36 -11 -44 -7 -80 -36 -80 -64 0 -63 92 -160 125
-132 9 7 17 11 19 9 9 -10 -51 -115 -92 -160 -57 -63 -51 -76 44 -104 114 -33
107 -26 79 -89 -37 -83 -169 -262 -320 -431 -15 -16 -70 -88 -123 -158 l-97
-129 -3 49 c-5 71 13 195 75 503 30 151 55 295 54 320 0 25 -12 79 -26 119
-36 107 -34 122 23 169 26 21 74 57 107 80 l60 41 93 -4 c52 -2 96 -5 98 -8z
m375 -22 c13 -11 39 -36 58 -57 l34 -38 -12 -75 c-13 -81 -13 -223 1 -270 4
-16 15 -61 23 -99 18 -85 103 -347 158 -484 22 -56 56 -120 74 -141 18 -22 33
-45 33 -53 -1 -34 -439 -211 -586 -237 -32 -5 -91 -15 -131 -22 -124 -21 -248
3 -401 76 -52 25 -92 49 -90 53 1 4 35 54 73 111 73 107 136 187 280 356 113
132 207 267 239 345 8 19 23 48 33 63 18 28 18 28 -6 46 -13 10 -32 16 -41 14
-9 -3 -42 3 -74 12 -61 18 -60 17 -16 75 34 44 76 127 85 163 4 23 10 27 23
21 9 -4 36 -9 59 -12 39 -4 44 -1 63 30 24 39 25 73 5 112 -8 15 -15 30 -15
31 0 2 24 2 53 1 34 -1 62 -9 78 -21z m-281 11 c0 -9 -39 -13 -51 -5 -10 6 -4
9 19 9 17 0 32 -2 32 -4z m110 -46 c13 -25 5 -56 -16 -64 -33 -13 -87 41 -61
62 33 26 64 27 77 2z m-186 4 c23 -9 19 -49 -8 -81 -27 -32 -45 -24 -67 29
-11 27 -10 32 6 44 20 15 44 18 69 8z m557 -171 c34 -50 111 -144 163 -202 31
-33 206 -176 241 -197 17 -10 17 -13 -8 -65 -14 -29 -34 -64 -44 -77 -19 -23
-19 -23 -64 -6 -73 28 -199 107 -238 148 -20 21 -49 52 -64 68 -34 37 -47 98
-47 223 0 99 7 155 21 155 4 0 23 -21 40 -47z m-1002 -95 c6 -35 9 -74 6 -88
-2 -14 -6 -52 -10 -85 -5 -58 -7 -62 -68 -120 -56 -54 -219 -174 -318 -233
l-35 -21 -28 67 c-15 37 -30 74 -32 82 -4 11 27 41 97 95 104 81 259 233 325
318 20 26 40 47 44 47 5 0 13 -28 19 -62z m1548 -377 c63 -31 107 -78 97 -104
-10 -27 -209 -28 -243 -1 -2 2 6 16 18 33 12 16 28 46 36 65 9 20 19 36 23 36
5 0 36 -13 69 -29z m-2064 -99 c44 -97 42 -104 -28 -123 -60 -17 -91 -16 -153
3 -32 10 -58 41 -47 57 3 5 43 30 90 56 46 25 87 50 90 55 12 20 23 9 48 -48z
m1640 -654 c9 -46 24 -137 32 -203 9 -66 23 -163 30 -215 17 -117 95 -492 132
-636 26 -102 27 -107 9 -120 -31 -23 -124 -36 -205 -30 -42 3 -84 6 -93 7 -9
0 -21 12 -26 27 -6 15 -29 77 -52 137 -23 61 -52 139 -65 175 -38 107 -79 202
-109 249 l-28 43 -70 -4 c-69 -4 -71 -5 -114 -50 l-44 -47 -2 -83 c-3 -117 -3
-126 6 -289 l8 -146 -53 -22 c-67 -29 -186 -38 -248 -18 -44 14 -45 15 -79
103 -43 111 -114 385 -136 524 -48 299 -66 444 -66 527 l0 92 88 -35 c213 -86
214 -86 373 -86 162 1 228 13 405 78 55 19 133 47 174 61 41 14 79 30 85 34
22 21 33 5 48 -73z m267 -1263 c24 -50 63 -224 58 -264 -3 -23 -11 -28 -72
-44 -129 -35 -194 -4 -261 124 -32 61 -64 152 -65 183 0 5 29 6 65 4 67 -6
201 14 219 32 19 19 34 10 56 -35z m-844 -86 c4 -41 15 -92 25 -114 24 -52 25
-138 2 -161 -29 -29 -103 -57 -134 -50 -54 10 -107 53 -129 103 -17 37 -100
275 -100 286 0 1 51 2 113 3 88 1 121 5 157 21 54 24 55 23 66 -88z"/>
<path d="M2734 3970 c-44 -17 -64 -58 -64 -127 0 -97 34 -148 105 -159 58 -8
100 15 127 70 22 45 19 91 -4 68 -17 -17 -43 -15 -58 3 -20 24 3 65 35 65 34
0 67 18 59 32 -4 6 -22 8 -45 4 -37 -6 -52 5 -29 19 19 12 -2 26 -30 20 -16
-3 -31 -2 -35 4 -7 13 -32 13 -61 1z"/>
<path d="M2452 3600 c-105 -22 -120 -35 -103 -89 9 -31 22 -46 55 -66 51 -30
90 -32 133 -5 54 33 80 110 53 161 -13 22 -26 22 -138 -1z m75 -36 c-3 -3 -12
-4 -19 -1 -8 3 -5 6 6 6 11 1 17 -2 13 -5z m-38 -8 c-2 -2 -22 -6 -44 -9 -28
-5 -34 -4 -20 3 19 8 73 14 64 6z m51 -21 c0 -3 -7 -17 -16 -30 -18 -27 -60
-33 -95 -15 -30 17 -23 27 29 38 57 12 82 14 82 7z"/>
<path d="M2531 324 c0 -11 3 -14 6 -6 3 7 2 16 -1 19 -3 4 -6 -2 -5 -13z"/>
</g>
</svg>
